<?xml version="1.0" encoding="UTF-8"?>
<svg version="1.1" xmlns="http://www.w3.org/2000/svg" width="549" height="549">
<path d="M0 0 C181.17 0 362.34 0 549 0 C549 181.17 549 362.34 549 549 C367.83 549 186.66 549 0 549 C0 367.83 0 186.66 0 0 Z " fill="#7C7C7C" transform="translate(0,0)"/>
<path d="M0 0 C4.1123483 0.53431904 6.12656137 2.69810275 9.0625 5.5 C12.72816612 8.94402692 16.44269532 12.23145921 20.375 15.375 C25.1706049 19.24154184 29.66878667 23.34851983 34.16137695 27.5559082 C38.37411123 31.47892724 42.76404453 35.11903719 47.25390625 38.72265625 C50.79757744 41.66143336 54.15602502 44.78362348 57.52416992 47.91870117 C60.71341919 50.86946347 63.98373905 53.66000223 67.375 56.375 C72.59054761 60.56416433 77.46451601 65.06182124 82.31787109 69.65966797 C82.88328613 70.19350098 83.44870117 70.72733398 84.03125 71.27734375 C84.78245117 71.99265259 84.78245117 71.99265259 85.54882812 72.72241211 C87.18291912 74.21834029 87.18291912 74.21834029 90 76 C89.40083121 81.76374328 88.28552596 87.10942236 86.75 92.6875 C84.99159302 99.14839914 83.34848622 105.62381935 81.828125 112.14453125 C79.68848266 121.21912225 77.45428623 130.26898196 75.1875 139.3125 C75.01865547 139.98637568 74.84981094 140.66025135 74.67584991 141.3545475 C73.27560001 146.94159847 71.87229022 152.52787996 70.46887207 158.11413574 C65.20436796 179.041902 65.20436796 179.041902 60.0625 200 C59.86309814 200.81170654 59.66369629 201.62341309 59.45825195 202.4597168 C58.3007185 207.29660825 57.5339267 212.05415263 57 217 C57.639375 217.268125 58.27875 217.53625 58.9375 217.8125 C61 219 61 219 62 222 C62.56203125 222.12246094 63.1240625 222.24492187 63.703125 222.37109375 C67.12768641 223.30877128 69.2443392 225.66704372 71.75 228.0625 C72.27932129 228.55983643 72.80864258 229.05717285 73.35400391 229.56958008 C74.91053205 231.0383732 76.45616968 232.51788175 78 234 C78.77601563 234.73476563 79.55203125 235.46953125 80.3515625 236.2265625 C84.74446947 240.48378122 88.48565793 244.99472494 92 250 C92.51949219 249.84402344 93.03898437 249.68804687 93.57421875 249.52734375 C96.65729547 248.85710968 99.66242567 248.72973038 102.8125 248.5625 C107.89644914 248.23552402 112.17849351 247.53877867 117 246 C119.9375 245.875 119.9375 245.875 122 246 C121.67 246.99 121.34 247.98 121 249 C118.93359375 249.94921875 118.93359375 249.94921875 116.4375 250.6875 C115.19806641 251.06455078 115.19806641 251.06455078 113.93359375 251.44921875 C113.29550781 251.63097656 112.65742188 251.81273437 112 252 C112.66 252.78375 113.32 253.5675 114 254.375 C116 257 116 257 116 259 C117.4540625 258.2575 117.4540625 258.2575 118.9375 257.5 C124.12099404 255.32022082 128.97272597 255.06930088 134.36328125 256.7265625 C141.98905805 259.87940467 146.90287968 263.87584514 150.3359375 271.42578125 C151 274 151 274 151 282 C142.75 282 134.5 282 126 282 C125.34 283.98 124.68 285.96 124 288 C123.34 288.99 122.68 289.98 122 291 C142.30536862 290.89287253 162.61069862 290.7801314 182.91599846 290.66066074 C192.34356306 290.60532328 201.77113144 290.55184044 211.19873047 290.50268555 C219.41340466 290.45985011 227.62805093 290.41357375 235.842682 290.36312145 C240.19443774 290.33651535 244.54618792 290.31166215 248.89797592 290.29092598 C252.99040397 290.27137138 257.08277883 290.24723116 261.17515945 290.21950912 C262.68043809 290.21013244 264.18572841 290.20245939 265.69102478 290.19658089 C267.73974904 290.18833029 269.78844354 290.17346458 271.83712769 290.15821838 C272.98568174 290.15176583 274.1342358 290.14531328 275.31759453 290.1386652 C277.97177771 290.18096201 277.97177771 290.18096201 280 289 C280 340.81 280 392.62 280 446 C98.83 446 -82.34 446 -269 446 C-269 394.85 -269 343.7 -269 291 C-207.95 291 -146.9 291 -84 291 C-84 289.35 -84 287.7 -84 286 C-83.01 284.68 -82.02 283.36 -81 282 C-92.88 282 -104.76 282 -117 282 C-117.99 277.05 -117.99 277.05 -119 272 C-111.0547497 265.39661419 -105.5918376 262.47943692 -95.09765625 262.6875 C-87.27595759 263.47657427 -80.17178306 267.00621168 -75 273 C-75 273.66 -75 274.32 -75 275 C-72.95880212 273.38405168 -70.95927063 271.7143618 -69 270 C-69 269.34 -69 268.68 -69 268 C-69.66 267.67 -70.32 267.34 -71 267 C-71 266.34 -71 265.68 -71 265 C-70.00419922 264.72736328 -70.00419922 264.72736328 -68.98828125 264.44921875 C-62.13517592 262.52929548 -62.13517592 262.52929548 -56 259 C-54.13012784 255.26025568 -54.69358166 250.53209172 -55.5 246.5 C-55.665 246.005 -55.83 245.51 -56 245 C-50.44764673 241.08811474 -47.10147029 239.85686935 -40.375 239.875 C-39.41335937 239.87242187 -38.45171875 239.86984375 -37.4609375 239.8671875 C-35 240 -35 240 -33 241 C-33.47074703 243.54203398 -34.01076993 245.0146471 -35.5625 247.125 C-37.63770185 251.27540369 -37.75676142 255.4371738 -37 260 C-35.81963575 262.3332106 -35.81963575 262.3332106 -34 264 C-30.37436186 264.33380814 -30.37436186 264.33380814 -27 264 C-26.67 261.69 -26.34 259.38 -26 257 C-26.99 257 -27.98 257 -29 257 C-29 253.07488565 -28.88776626 250.99312753 -26.22265625 248.01171875 C-21.27974818 243.69449525 -18.68032793 241.90744599 -11.97265625 241.76953125 C-10 242 -10 242 -7 244 C0.56388209 244.99524764 6.70079893 244.46723388 13.1953125 240.38671875 C15.04270718 239.04592901 15.04270718 239.04592901 16.5546875 237.33203125 C18 236 18 236 21 236 C17.90954106 231.77535785 14.49857811 228.81733042 10.375 225.6875 C9.12493279 224.71883673 7.87493324 223.75008613 6.625 222.78125 C4.42161761 221.08705261 2.21245251 219.40113576 0 217.71875 C-8.94370229 210.79802799 -8.94370229 210.79802799 -11 206 C-11.47610913 201.88611952 -11.04156845 198.58668838 -8.74609375 195.08984375 C-5.36042414 191.63890822 -2.43258351 190.59955338 2.375 190.4375 C7.65619983 190.74731118 12.12678767 192.01811259 17 194 C17.7321875 194.26683594 18.464375 194.53367187 19.21875 194.80859375 C27.43987903 197.89151714 35.19299381 202.0093219 43 206 C43.64059357 205.13634827 43.64059357 205.13634827 44.29412842 204.25524902 C45.36913763 202.83403215 46.46765346 201.4300133 47.59796143 200.05236816 C63.44115602 180.09542796 62.17323826 157.67613111 61.82519531 133.31103516 C61.74462485 127.59351228 61.79196962 121.88507576 61.87520981 116.16786957 C61.92586856 111.72670116 61.90968824 107.2876849 61.87342072 102.84645081 C61.86413873 100.73823432 61.87534235 98.6298172 61.90813446 96.52183533 C62.48159993 85.82706685 62.48159993 85.82706685 58.60018349 76.31501198 C55.74461244 73.93457425 52.75830571 72.35468478 49.37745667 70.85017395 C43.22440449 67.47952616 41.62829306 61.55671035 39.1875 55.1875 C33.91454257 42.10745967 26.88757894 31.99533323 17.5625 21.5 C11.50492197 14.67669558 11.50492197 14.67669558 10 11 C9.34 11 8.68 11 8 11 C6.56197818 9.4089357 5.19674665 7.7513985 3.875 6.0625 C3.15054687 5.14597656 2.42609375 4.22945313 1.6796875 3.28515625 C0 1 0 1 0 0 Z " fill="#F2F2F2" transform="translate(269,103)"/>
<path d="M0 0 C98.34 0 196.68 0 298 0 C298 127.71 298 255.42 298 387 C297.34 386.67 296.68 386.34 296 386 C293.12089412 385.76725791 290.25853505 385.58027243 287.375 385.4375 C286.57320312 385.39431641 285.77140625 385.35113281 284.9453125 385.30664062 C282.9637489 385.20048543 280.98189729 385.09973145 279 385 C278.86464844 384.3709375 278.72929688 383.741875 278.58984375 383.09375 C276.33232887 374.1177627 271.48767625 368.12449397 263.84375 362.96484375 C260.67843642 361.30841906 257.49671503 360.67480465 254 360 C253.85304688 359.2265625 253.70609375 358.453125 253.5546875 357.65625 C251.25640425 346.98376225 247.05008037 340.91381202 238.32421875 334.41015625 C234.9319331 332.35197958 231.89967299 331.63812831 228 331 C227.91363281 330.23816406 227.82726562 329.47632813 227.73828125 328.69140625 C226.65209227 320.709412 225.24045561 313.57860592 218.84765625 308.18359375 C213.19109062 304.27764577 208.10255494 301.87488349 201.1875 301.375 C199.81331909 301.27566162 199.81331909 301.27566162 198.41137695 301.17431641 C197.61562256 301.11679199 196.81986816 301.05926758 196 301 C195.82783529 291.1196586 196.31695666 281.46192614 197.25 271.625 C197.38588939 270.14765218 197.52145957 268.67027496 197.65673828 267.19287109 C198.09330685 262.46083025 198.54591169 257.73038639 199 253 C199.15138635 251.41146016 199.30275355 249.82291849 199.45410156 248.234375 C200.95685645 232.51991838 202.53547809 216.81657068 204.3671875 201.13671875 C204.53980606 199.65238342 204.53980606 199.65238342 204.71591187 198.13806152 C205.27479029 193.34211513 205.84238334 188.54747962 206.42529297 183.75439453 C209.34320018 167.77704897 209.34320018 167.77704897 206.09375 152.7890625 C205.2378125 152.07492188 204.381875 151.36078125 203.5 150.625 C202.12328125 149.42423828 202.12328125 149.42423828 200.71875 148.19921875 C199.37296875 147.11060547 199.37296875 147.11060547 198 146 C196.66373002 144.81580552 195.33011334 143.62860559 194 142.4375 C193.360625 141.88964844 192.72125 141.34179688 192.0625 140.77734375 C189.67535264 138.7202376 187.33765244 136.61315228 185 134.5 C182.08511071 131.86819555 179.15726789 129.25713074 176.1875 126.6875 C172.55806843 123.52923196 169.02788913 120.27048519 165.5 117 C159.60948423 111.5435047 153.62981098 106.2218033 147.49609375 101.0390625 C137.97540724 92.95258965 129.65256997 84.57252206 122.07421875 74.609375 C118.79930399 70.48951989 115.31499833 66.55316345 111.83789062 62.60351562 C108.6331141 58.94777863 105.63942236 55.22682769 102.75 51.3125 C99.73560243 47.51959066 97.26193826 45.69929874 92.73828125 44.05078125 C89.08141206 42.64750334 85.66833865 40.85128131 82.1875 39.0625 C76.44474634 36.14663941 70.65478856 33.55527362 64.67578125 31.15234375 C61.31684497 29.70579455 58.21671108 27.93404111 55.0546875 26.10546875 C52.60229492 24.78602559 50.04703067 23.92136667 47.421875 23.0078125 C43.34380801 21.31081043 39.52420362 19.10048059 35.65234375 16.984375 C31.20735902 14.57927304 26.73945606 12.57563176 22.00390625 10.796875 C19.48833118 9.79652936 17.29550657 8.42693652 15 7 C10.07955583 4.77187434 5.06542445 2.86620901 0 1 C0 0.67 0 0.34 0 0 Z " fill="#F3F3F3" transform="translate(251,0)"/>
<path d="M0 0 C76.89 0 153.78 0 233 0 C230.16539659 2.12595256 227.98114894 3.62799578 224.89331055 5.14135742 C224.09535568 5.53574509 223.29740082 5.93013275 222.4752655 6.33647156 C221.62104507 6.75524063 220.76682465 7.1740097 219.88671875 7.60546875 C218.06272907 8.5154307 216.23917487 9.42626598 214.41601562 10.33789062 C211.55657171 11.7635714 208.69497425 13.1838397 205.82543945 14.58911133 C203.04572587 15.95320118 200.27824926 17.3398757 197.51171875 18.73046875 C196.66357101 19.13911667 195.81542328 19.54776459 194.9415741 19.96879578 C186.59342028 24.20948735 181.81198381 30.58778857 176.5625 38.1875 C172.2767254 44.30652063 167.79526378 50.25922456 163.25 56.1875 C158.05190093 62.96938057 152.91818889 69.7896407 147.875 76.6875 C142.61393598 83.87920208 137.21535775 90.94970428 131.70458984 97.9519043 C131.16141113 98.64324463 130.61823242 99.33458496 130.05859375 100.046875 C129.58736084 100.64338867 129.11612793 101.23990234 128.63061523 101.85449219 C128.09251221 102.56250977 127.55440918 103.27052734 127 104 C126.14688232 104.99112793 125.29376465 105.98225586 124.41479492 107.00341797 C120.98758158 111.85552083 120.81300993 117.11923534 120.3046875 122.8984375 C120.18570099 124.04680084 120.06671448 125.19516418 119.94412231 126.37832642 C119.56787893 130.04220632 119.22011723 133.70806909 118.875 137.375 C118.40245884 142.17542826 117.91891364 146.97468245 117.4296875 151.7734375 C117.31225693 152.92898636 117.19482635 154.08453522 117.07383728 155.27510071 C115.60598279 169.32816704 113.45899316 182.09567464 107.80273438 195.10986328 C106.41817376 198.36998138 105.17684951 201.68250474 103.9375 205 C103.68911377 205.6614502 103.44072754 206.32290039 103.18481445 207.00439453 C101.01632715 212.83687763 99.08875354 218.73849233 97.16796875 224.65625 C95.93375879 228.1896404 94.4688699 231.48285484 92.69921875 234.77734375 C90.73805362 241.01143849 92.32448886 247.55120103 93.79296875 253.72265625 C93.97946991 254.53796814 94.16597107 255.35328003 94.35812378 256.19329834 C94.96018797 258.81821467 95.57390601 261.44025764 96.1875 264.0625 C96.6024807 265.86589984 97.01645821 267.6695308 97.42944336 269.47338867 C98.24309174 273.02531497 99.06005195 276.57644894 99.87988281 280.12695312 C101.31320366 286.34697908 102.70104169 292.57632646 104.0625 298.8125 C104.26576904 299.72845947 104.46903809 300.64441895 104.6784668 301.58813477 C105.37476308 304.77910226 106 307.72336823 106 311 C104.99839844 311.03738281 103.99679688 311.07476562 102.96484375 311.11328125 C92.71514379 311.58192725 85.68823273 312.48649983 78 320 C77.5875 321.0725 77.175 322.145 76.75 323.25 C76.1725 324.1575 75.595 325.065 75 326 C72.55309413 326.49946206 70.1848256 326.5713582 67.69140625 326.6875 C60.55160847 327.5165041 54.83636142 332.27325079 50.375 337.6640625 C47.93629949 341.80708212 47.42587927 346.27187095 47 351 C46.29875 351.02578125 45.5975 351.0515625 44.875 351.078125 C33.76731913 351.74217114 26.51071474 355.7167546 19 364 C14.31751728 370.70673891 13.31030795 376.93199318 13 385 C8.71 385 4.42 385 0 385 C0 257.95 0 130.9 0 0 Z " fill="#F3F3F3" transform="translate(0,0)"/>
<path d="M0 0 C9.02154729 0.61163032 16.26415259 3.47758461 24.23046875 7.66015625 C26.53907535 8.77701389 28.49920755 9.51655325 31 10 C31 10.66 31 11.32 31 12 C31.78375 12.20625 32.5675 12.4125 33.375 12.625 C52.6649971 19.94189545 73.35681116 39.19832304 84.8125 56 C87.27137099 59.47588205 87.27137099 59.47588205 91 61 C94.31550202 60.72455805 94.31550202 60.72455805 97 59 C100.25 58.625 100.25 58.625 104 59 C108.05137769 62.47353696 110.90263977 66.48430529 113.75 70.9375 C114.14832031 71.53240234 114.54664063 72.12730469 114.95703125 72.74023438 C117.35065495 76.45237961 118.86016023 79.55055267 119 84 C116.625 86.8125 116.625 86.8125 114 89 C111.9403316 91.0596684 112.00118879 94.11206963 111.74609375 96.88671875 C112.05597647 100.68635763 113.366875 103.58938549 115.0625 106.9375 C129.60368479 135.69347224 134.5638758 172.47660539 125.2890625 203.51953125 C124 207 124 207 122 209 C119.5625 209.4375 119.5625 209.4375 117 209 C113.27222714 204.52110873 113.16965509 199.32027828 112.5625 193.75 C109.83716976 171.56848413 103.31752935 151.28661821 93.875 131.0625 C93.53823242 130.34030273 93.20146484 129.61810547 92.85449219 128.87402344 C90.27568672 123.23209995 90.27568672 123.23209995 87 118 C85.04115354 117.26465315 85.04115354 117.26465315 82.9375 117.3125 C79 117 79 117 77 115 C72.8532396 115.28289048 70.65687942 116.77215065 67.5625 119.4375 C63.64889477 122.68827076 59.65457168 125.7536441 55.5 128.6875 C54.91444336 129.10217529 54.32888672 129.51685059 53.72558594 129.9440918 C52.47793867 130.82748304 51.23004636 131.71052829 49.98193359 132.59326172 C36.87014697 141.89975526 23.92993949 151.44354656 11 161 C7.81331039 163.35526631 4.625939 165.70960239 1.4375 168.0625 C0.64980225 168.64394775 -0.13789551 169.22539551 -0.94946289 169.82446289 C-5.50029048 173.17758115 -10.07295976 176.49753794 -14.66674805 179.79150391 C-23.04518495 185.799524 -31.26875915 191.98590892 -39.45117188 198.25805664 C-44.90622432 202.43072695 -50.39450136 206.53532586 -56.02734375 210.46533203 C-59.03534434 212.56788137 -61.95929857 214.73559034 -64.8359375 217.015625 C-76.84784123 226.44361616 -76.84784123 226.44361616 -83.7890625 226.33984375 C-89.17764509 225.51156339 -93.21635995 224.2651361 -96.875 220.0625 C-100.89468774 214.26942061 -101.88333955 210.04435337 -101 203 C-96.82049311 194.30662567 -87.38794131 189.06855041 -79.625 183.875 C-77.64639088 182.53886229 -75.66853296 181.20161155 -73.69140625 179.86328125 C-72.72090332 179.20666504 -71.75040039 178.55004883 -70.75048828 177.87353516 C-66.99054455 175.31239472 -63.27109824 172.69723416 -59.5625 170.0625 C-44.43940993 159.33415405 -29.19251873 148.78824637 -13.85546875 138.3684082 C-7.60677618 134.11576323 -1.41571718 129.78953467 4.74633789 125.41259766 C9.89726535 121.76033288 15.09449895 118.18066216 20.3125 114.625 C27.15626357 109.96075647 33.96651023 105.25151683 40.75 100.5 C41.98230347 99.63689209 41.98230347 99.63689209 43.23950195 98.75634766 C44.02156006 98.20769043 44.80361816 97.6590332 45.609375 97.09375 C46.35251953 96.57296875 47.09566406 96.0521875 47.86132812 95.515625 C49.26982751 94.51745557 50.6698945 93.50726244 52.06054688 92.484375 C56.80262465 89 56.80262465 89 59 89 C58.91621094 88.30132812 58.83242188 87.60265625 58.74609375 86.8828125 C58.59333984 85.51769531 58.59333984 85.51769531 58.4375 84.125 C58.33308594 83.22007812 58.22867188 82.31515625 58.12109375 81.3828125 C58 79 58 79 59 77 C59.66 77 60.32 77 61 77 C47.83077945 51.22964292 28.04411175 30.39565478 4.84716797 13.38964844 C2.14505804 11.35681607 -0.42620289 9.19234512 -3 7 C-2.25 2.25 -2.25 2.25 0 0 Z " fill="#343331" transform="translate(269,301)"/>
<path d="M0 0 C4.15211686 1.28985879 7.89765898 2.86553563 11.75 4.875 C15.55343975 6.81678089 19.32703201 8.59165964 23.3125 10.125 C26.25372987 11.25732651 28.97157839 12.46312394 31.6875 14.0625 C34.40680353 15.65303602 37.05417775 16.8749945 39.94604492 18.09204102 C44.84815451 20.25903799 49.58551166 22.79576193 54.35351562 25.24023438 C59.41872199 27.80593076 64.50206325 30.08339001 69.81054688 32.1015625 C71.88797655 32.95403141 73.75496029 33.92394947 75.6875 35.0625 C78.91864515 37.04773843 78.91864515 37.04773843 82.25 38.375 C92.3185331 42.64171022 99.11095888 47.44765886 106 56 C106.70511719 56.85722656 107.41023438 57.71445313 108.13671875 58.59765625 C109.61466571 60.3993187 111.08714112 62.20548069 112.5546875 64.015625 C126.73289227 81.56235477 126.73289227 81.56235477 142.8828125 97.19921875 C145.42227726 99.3591694 147.86164933 101.61507962 150.3125 103.875 C153.94763009 107.19926379 157.64904874 110.36662731 161.5 113.4375 C166.43573962 117.41273347 170.81196653 121.77343795 175.23828125 126.30078125 C178.76608433 129.7487472 182.55006165 132.78212522 186.40625 135.8515625 C190.19274338 138.98796515 193.61460973 142.44000507 197 146 C193.69488983 148.20340678 190.75873475 148.87590151 186.94921875 149.6640625 C186.23466019 149.81733505 185.52010162 149.9706076 184.78388977 150.12852478 C182.41976298 150.63388255 180.05376521 151.12975928 177.6875 151.625 C176.04092479 151.97344801 174.39444166 152.32233135 172.74804688 152.67163086 C170.1705017 153.2179103 167.59275669 153.76315282 165.01437378 154.3054657 C159.64789074 155.43457432 154.28686107 156.58603285 148.92964172 157.75830078 C145.45795929 158.51726644 141.98457386 159.26823776 138.51089478 160.01800537 C136.84269763 160.37975864 135.17518583 160.7446875 133.50839233 161.112854 C131.17415785 161.62748423 128.83755272 162.12959848 126.5 162.62890625 C125.81198807 162.78366928 125.12397614 162.93843231 124.41511536 163.09788513 C119.8600739 164.05323077 116.26529555 164.46227429 112.24584961 161.86767578 C111.71999268 161.3982959 111.19413574 160.92891602 110.65234375 160.4453125 C110.05325195 159.9184082 109.45416016 159.39150391 108.83691406 158.84863281 C108.21010742 158.27983398 107.58330078 157.71103516 106.9375 157.125 C106.2784668 156.54073242 105.61943359 155.95646484 104.94042969 155.35449219 C99.84408235 150.81921061 94.8398784 146.18320746 89.83203125 141.55078125 C86.23358185 138.3096951 82.48652742 135.28183914 78.71484375 132.24609375 C74.94068934 129.1235919 71.36710497 125.79897529 67.765625 122.48046875 C64.99482399 119.99535768 62.14948638 117.64555667 59.25 115.3125 C55.54116805 112.32133751 52.16773704 109.22744123 48.86328125 105.8046875 C46.58133484 103.59450041 44.15792663 101.62207216 41.6875 99.625 C40.28371094 98.4803125 40.28371094 98.4803125 38.8515625 97.3125 C36.98341322 95.79750771 35.10350945 94.29687016 33.2109375 92.8125 C26.77390407 87.49577623 24.05957409 83.03538266 22 75 C21.66613281 73.7728125 21.33226562 72.545625 20.98828125 71.28125 C20.31075121 68.7832857 19.66160432 66.28325828 19.02734375 63.7734375 C18.0728699 60.26765143 16.97271942 56.86183004 15.80541992 53.42382812 C14.33549023 49.00022642 13.02618902 44.52719241 11.6875 40.0625 C9.47824834 32.72452289 7.17033923 25.43732845 4.6875 18.1875 C2.63145369 12.16816701 1.01576867 6.29776577 0 0 Z " fill="#A5A6A6" transform="translate(249,9)"/>
<path d="M0 0 C1.7043457 0.79467773 1.7043457 0.79467773 2.7590332 2.52514648 C5.26083032 10.01862452 7.31510998 17.61107298 9.34790039 25.24243164 C11.58362858 33.56119194 14.25205891 41.68639957 17.0402832 49.83276367 C20.02253787 58.64357196 22.48662453 67.56951957 24.7746582 76.57983398 C25.54331692 79.23784291 26.47346683 81.34925909 27.7043457 83.79467773 C27.7043457 84.78467773 27.7043457 85.77467773 27.7043457 86.79467773 C27.06400391 86.96628418 26.42366211 87.13789062 25.76391602 87.31469727 C18.29663166 89.33169166 10.87040763 91.47234552 3.4543457 93.66967773 C2.26139893 94.02263916 1.06845215 94.37560059 -0.16064453 94.73925781 C-6.26354452 96.55628498 -12.3318881 98.42554301 -18.3581543 100.48217773 C-23.72491896 102.29786106 -29.10941659 104.01312691 -34.5456543 105.60717773 C-35.25471924 105.82656006 -35.96378418 106.04594238 -36.69433594 106.27197266 C-46.38190552 109.03937086 -56.23940035 107.75566155 -66.08862305 106.48217773 C-67.16066483 106.34900146 -68.2327066 106.2158252 -69.3372345 106.07861328 C-72.72003168 105.65692739 -76.10156978 105.22596906 -79.4831543 104.79467773 C-81.7936239 104.50499821 -84.10417022 104.21592997 -86.41479492 103.92749023 C-92.04265373 103.22361164 -97.66951215 102.51214171 -103.2956543 101.79467773 C-102.57225263 98.61466287 -101.65977553 96.61046822 -99.69799805 93.98608398 C-99.15191895 93.2497876 -98.60583984 92.51349121 -98.04321289 91.75488281 C-97.14723389 90.5680188 -97.14723389 90.5680188 -96.2331543 89.35717773 C-95.61263184 88.52532959 -94.99210938 87.69348145 -94.3527832 86.83642578 C-88.3267195 78.77939992 -82.21789352 70.78441479 -76.1081543 62.79077148 C-73.26678308 59.07137694 -70.43310016 55.34664657 -67.625 51.60205078 C-66.6545485 50.31262261 -65.67647323 49.0288975 -64.69091797 47.75097656 C-62.06950899 44.32118068 -59.71372231 40.87448009 -57.53393555 37.14624023 C-48.50345635 22.4037558 -36.19906232 16.37719739 -20.93388367 9.43725586 C-15.43000645 6.92578348 -10.21026893 4.02200706 -4.98730469 0.97338867 C-2.2956543 -0.20532227 -2.2956543 -0.20532227 0 0 Z " fill="#A9AAAA" transform="translate(238.295654296875,8.205322265625)"/>
<path d="M0 0 C2.84155273 -0.38818359 2.84155273 -0.38818359 6.43359375 -0.3984375 C7.72201172 -0.40230469 9.01042969 -0.40617187 10.33789062 -0.41015625 C11.01053955 -0.40387207 11.68318848 -0.39758789 12.3762207 -0.39111328 C14.42662435 -0.37508502 16.47504916 -0.39094123 18.52539062 -0.41015625 C19.81509766 -0.40628906 21.10480469 -0.40242188 22.43359375 -0.3984375 C23.62009521 -0.39505371 24.80659668 -0.39166992 26.02905273 -0.38818359 C29 0 29 0 30.88061523 1.33544922 C32.63237946 3.94036274 32.49254844 6.40481618 32.625 9.5 C32.84539768 14.33459691 32.84539768 14.33459691 34 19 C36.36006749 19.92453659 36.36006749 19.92453659 39.1875 20.5 C42.56394829 21.32448156 45.19502943 22.09935462 48.3125 23.6875 C51.66895137 25.32669718 53.31473543 25.75209481 57 25 C58.97976337 23.29943403 60.68187804 21.50651372 62.38671875 19.53125 C64 18 64 18 67 18 C67.58687492 22.672713 67.47433587 26.5037638 66 31 C62.42416517 35.16580902 57.54145084 37.94565507 52.90771484 40.79394531 C50.27698688 42.4570879 47.84503672 44.35917008 45.375 46.25 C41.70387715 49.05808695 41.70387715 49.05808695 38.5859375 48.80078125 C35.77298311 47.92970021 33.01938668 46.93835348 30.25 45.9375 C16.61787054 41.72757767 2.75340789 43.03976885 -9.96484375 49.5078125 C-20.85645793 55.93222141 -27.11120696 64.4630712 -32 76 C-32.57814453 77.35738281 -32.57814453 77.35738281 -33.16796875 78.7421875 C-34.10295916 82.40313586 -34.05366255 85.53117262 -33.97021484 89.28417969 C-33.83097769 100.57693601 -33.83097769 100.57693601 -37.12109375 104.58203125 C-40.00204241 106.32694625 -42.91987417 107.64168364 -46 109 C-48.09621091 110.43099269 -50.16051315 111.91003001 -52.1875 113.4375 C-53.10917969 114.11683594 -54.03085938 114.79617188 -54.98046875 115.49609375 C-55.98013672 116.24052734 -55.98013672 116.24052734 -57 117 C-59 114 -59 114 -60 112 C-62.66124985 111.57561464 -65.25929915 111.24999628 -67.9375 111 C-75.73130393 110.26869607 -75.73130393 110.26869607 -78 108 C-78.25878906 105.15844727 -78.25878906 105.15844727 -78.265625 101.56640625 C-78.26820313 100.27798828 -78.27078125 98.98957031 -78.2734375 97.66210938 C-78.26924805 96.98946045 -78.26505859 96.31681152 -78.26074219 95.6237793 C-78.25005865 93.57375351 -78.26062963 91.52460753 -78.2734375 89.47460938 C-78.27085937 88.18490234 -78.26828125 86.89519531 -78.265625 85.56640625 C-78.26336914 84.37990479 -78.26111328 83.19340332 -78.25878906 81.97094727 C-78 79 -78 79 -76 76 C-73.22737745 75.61605333 -70.65676472 75.39657752 -67.875 75.3125 C-67.12089844 75.27833984 -66.36679688 75.24417969 -65.58984375 75.20898438 C-63.72708799 75.12645722 -61.86356674 75.06155289 -60 75 C-59.76216797 73.96552734 -59.76216797 73.96552734 -59.51953125 72.91015625 C-58.04904127 66.98757507 -56.26511959 62.17084168 -52.890625 57.0703125 C-51.68291805 54.26292355 -52.00056332 52.86325102 -53 50 C-54.7404669 47.91634245 -56.62922941 46.12100463 -58.6015625 44.2578125 C-60.19559416 41.68420831 -60.49301572 39.98733956 -59.88623047 37.00683594 C-57.84059015 32.3745595 -53.83532031 29.02775117 -50.25 25.5625 C-49.43789062 24.73556641 -48.62578125 23.90863281 -47.7890625 23.05664062 C-41.75102627 17.10219284 -41.75102627 17.10219284 -38.3840332 16.64404297 C-34.86470202 17.16950993 -33.40234411 19.06717868 -30.9375 21.5625 C-28.5200255 24.12051509 -28.5200255 24.12051509 -26 26 C-23.91689503 26.02115151 -23.91689503 26.02115151 -22 25 C-20.91912109 24.55333984 -20.91912109 24.55333984 -19.81640625 24.09765625 C-18.70072266 23.58525391 -18.70072266 23.58525391 -17.5625 23.0625 C-16.77488281 22.70800781 -15.98726562 22.35351562 -15.17578125 21.98828125 C-13.53374148 21.24243554 -11.89183791 20.49628996 -10.25 19.75 C-7.72024175 18.90674725 -5.64931572 18.84861053 -3 19 C-3.01160156 18.43152344 -3.02320313 17.86304688 -3.03515625 17.27734375 C-3.18129614 4.77194422 -3.18129614 4.77194422 0 0 Z " fill="#484848" transform="translate(253,355)"/>
<path d="M0 0 C0.99 1.98 0.99 1.98 2 4 C5.63 4 9.26 4 13 4 C20.73004922 14.8062933 20.81372904 24.044917 20 37 C16.8346014 38.5826993 13.35358491 38.65696549 9.875 39.0625 C9.12089844 39.15337891 8.36679687 39.24425781 7.58984375 39.33789062 C5.72695812 39.56190852 3.86352748 39.78138573 2 40 C1.01170583 42.51758117 0.0342774 45.03854724 -0.9375 47.5625 C-1.21529297 48.26697266 -1.49308594 48.97144531 -1.77929688 49.69726562 C-3.46222274 54.09720434 -4.90865471 58.23862694 -5 63 C-3.41651071 65.53749331 -3.41651071 65.53749331 -1.0625 67.5625 C2.90881943 71.27496842 2.90881943 71.27496842 3.3581543 74.84790039 C2.91200096 78.77447552 1.81130258 79.96095455 -0.9453125 82.7421875 C-1.77546875 83.58007812 -2.605625 84.41796875 -3.4609375 85.28125 C-4.34007812 86.1371875 -5.21921875 86.993125 -6.125 87.875 C-6.9809375 88.75414062 -7.836875 89.63328125 -8.71875 90.5390625 C-9.55664062 91.36921875 -10.39453125 92.199375 -11.2578125 93.0546875 C-12.0223877 93.81249512 -12.78696289 94.57030273 -13.57470703 95.35107422 C-16.62706576 97.42633402 -18.37697691 97.44273195 -22 97 C-24.7734375 95.3203125 -24.7734375 95.3203125 -27.375 93.125 C-28.24898438 92.40570312 -29.12296875 91.68640625 -30.0234375 90.9453125 C-31.00183594 89.98238281 -31.00183594 89.98238281 -32 89 C-32 88.34 -32 87.68 -32 87 C-32.9178125 87.39832031 -33.835625 87.79664063 -34.78125 88.20703125 C-41.13559912 90.95406259 -47.48390103 93.65420437 -54 96 C-54.03738281 96.86882812 -54.07476562 97.73765625 -54.11328125 98.6328125 C-54.17902344 99.78523437 -54.24476563 100.93765625 -54.3125 102.125 C-54.37050781 103.26195312 -54.42851562 104.39890625 -54.48828125 105.5703125 C-55 109 -55 109 -58 115 C-67.9 115 -77.8 115 -88 115 C-90.06363681 110.87272638 -90.42167583 107.73160349 -90.625 103.25 C-90.68300781 102.20392578 -90.68300781 102.20392578 -90.7421875 101.13671875 C-90.83598624 99.42489182 -90.91906174 97.71248318 -91 96 C-92.16015625 95.76216797 -92.16015625 95.76216797 -93.34375 95.51953125 C-99.49442082 94.14172009 -104.28501178 92.70449736 -109.28125 88.79296875 C-111.01890867 87.75686364 -111.01890867 87.75686364 -113.01171875 88.640625 C-115.13385271 90.09151423 -116.62260885 91.63061967 -118.3125 93.5625 C-120.99856334 96.34697514 -121.89650059 96.97285261 -125.8125 98 C-129 98 -129 98 -131 97 C-129.69281249 93.07843746 -127.28050148 91.84409721 -124 89.625 C-118.20019936 85.59784777 -112.53676194 81.42678284 -106.9375 77.125 C-106.22400391 76.5779541 -105.51050781 76.0309082 -104.77539062 75.46728516 C-104.09541016 74.94440918 -103.41542969 74.4215332 -102.71484375 73.8828125 C-102.07071533 73.39031006 -101.42658691 72.89780762 -100.76293945 72.39038086 C-99.22387434 71.1765634 -97.74977058 69.88127886 -96.2890625 68.57421875 C-94 67 -94 67 -91.68359375 67.01171875 C-90.57177734 67.34623047 -90.57177734 67.34623047 -89.4375 67.6875 C-88.32181641 68.00267578 -88.32181641 68.00267578 -87.18359375 68.32421875 C-86.46300781 68.54722656 -85.74242187 68.77023437 -85 69 C-81.79160419 69.95689762 -78.92237261 70.1162354 -75.578125 70.09765625 C-74.55332031 70.09443359 -73.52851563 70.09121094 -72.47265625 70.08789062 C-70.87744141 70.07532227 -70.87744141 70.07532227 -69.25 70.0625 C-68.17105469 70.05798828 -67.09210938 70.05347656 -65.98046875 70.04882812 C-63.32025617 70.03705727 -60.66015635 70.02061399 -58 70 C-58 69.34 -58 68.68 -58 68 C-57.40574219 67.8040625 -56.81148438 67.608125 -56.19921875 67.40625 C-42.38796173 62.42302818 -33.11346539 53.64744603 -26.8125 40.52734375 C-25.88817743 38.2402143 -25.88817743 38.2402143 -25 35 C-24.80277344 34.4121875 -24.60554688 33.824375 -24.40234375 33.21875 C-23.86712426 30.84425897 -23.86712426 30.84425897 -24.31640625 27.78515625 C-24.59936286 23.50487615 -24.79747766 19.95945187 -23 16 C-18.03661832 10.48715613 -11.34218452 6.7268507 -5 3 C-3.47632813 2.07960938 -3.47632813 2.07960938 -1.921875 1.140625 C-0.97054687 0.57601563 -0.97054687 0.57601563 0 0 Z " fill="#494949" transform="translate(341,427)"/>
<path d="M0 0 C1.7043457 0.79467773 1.7043457 0.79467773 2.7590332 2.52514648 C5.26083032 10.01862452 7.31510998 17.61107298 9.34790039 25.24243164 C11.58362858 33.56119194 14.25205891 41.68639957 17.0402832 49.83276367 C20.02253787 58.64357196 22.48662453 67.56951957 24.7746582 76.57983398 C25.54331692 79.23784291 26.47346683 81.34925909 27.7043457 83.79467773 C27.7043457 84.78467773 27.7043457 85.77467773 27.7043457 86.79467773 C27.06400391 86.96628418 26.42366211 87.13789062 25.76391602 87.31469727 C18.29663166 89.33169166 10.87040763 91.47234552 3.4543457 93.66967773 C2.26139893 94.02263916 1.06845215 94.37560059 -0.16064453 94.73925781 C-6.26354452 96.55628498 -12.3318881 98.42554301 -18.3581543 100.48217773 C-23.72491896 102.29786106 -29.10941659 104.01312691 -34.5456543 105.60717773 C-35.25471924 105.82656006 -35.96378418 106.04594238 -36.69433594 106.27197266 C-46.38190552 109.03937086 -56.23940035 107.75566155 -66.08862305 106.48217773 C-67.16066483 106.34900146 -68.2327066 106.2158252 -69.3372345 106.07861328 C-72.72003168 105.65692739 -76.10156978 105.22596906 -79.4831543 104.79467773 C-81.7936239 104.50499821 -84.10417022 104.21592997 -86.41479492 103.92749023 C-92.04265373 103.22361164 -97.66951215 102.51214171 -103.2956543 101.79467773 C-102.57225263 98.61466287 -101.65977553 96.61046822 -99.69799805 93.98608398 C-99.15191895 93.2497876 -98.60583984 92.51349121 -98.04321289 91.75488281 C-97.14723389 90.5680188 -97.14723389 90.5680188 -96.2331543 89.35717773 C-95.61263184 88.52532959 -94.99210938 87.69348145 -94.3527832 86.83642578 C-88.3267195 78.77939992 -82.21789352 70.78441479 -76.1081543 62.79077148 C-73.26678308 59.07137694 -70.43310016 55.34664657 -67.625 51.60205078 C-66.6545485 50.31262261 -65.67647323 49.0288975 -64.69091797 47.75097656 C-62.06950899 44.32118068 -59.71372231 40.87448009 -57.53393555 37.14624023 C-48.50345635 22.4037558 -36.19906232 16.37719739 -20.93388367 9.43725586 C-15.43000645 6.92578348 -10.21026893 4.02200706 -4.98730469 0.97338867 C-2.2956543 -0.20532227 -2.2956543 -0.20532227 0 0 Z M-26.03393555 19.87280273 C-31.64023194 20.13662845 -33.38857332 21.57551041 -37.2956543 25.79467773 C-43.18180185 31.86162846 -49.12455314 37.45406986 -55.8503418 42.59155273 C-62.24112771 48.34938541 -64.63007185 56.08300735 -67.7331543 63.91967773 C-68.66889967 66.25579655 -69.60509465 68.59173533 -70.54174805 70.92749023 C-70.99533691 72.06734375 -71.44892578 73.20719727 -71.91625977 74.3815918 C-73.67689926 78.73800597 -75.52704046 83.0541968 -77.39746094 87.36450195 C-78.46899379 89.83186126 -78.46899379 89.83186126 -78.2956543 92.79467773 C-77.15870117 93.09760742 -76.02174805 93.40053711 -74.8503418 93.71264648 C-73.29007181 94.13444196 -71.73020417 94.55772744 -70.1706543 94.98217773 C-69.35693359 95.20341309 -68.54321289 95.42464844 -67.70483398 95.65258789 C-61.40537924 97.40188853 -55.37744283 99.52738622 -49.3112793 101.97436523 C-44.27946805 103.34312218 -40.88492732 102.25005451 -36.44799805 99.79077148 C-35.03722579 98.9475762 -33.63248783 98.09422315 -32.2331543 97.23217773 C-31.49234619 96.78688721 -30.75153809 96.34159668 -29.98828125 95.8828125 C-26.45111478 93.74971211 -22.93916339 91.57727276 -19.4362793 89.38842773 C-18.55661499 88.84037476 -18.55661499 88.84037476 -17.65917969 88.28125 C-16.0787867 87.29203679 -14.50534019 86.29175057 -12.93237305 85.29077148 C-10.63691983 83.98831433 -8.87255097 83.24150305 -6.2956543 82.79467773 C-6.2956543 82.13467773 -6.2956543 81.47467773 -6.2956543 80.79467773 C-5.5944043 80.54717773 -4.8931543 80.29967773 -4.1706543 80.04467773 C-0.8460498 78.59919752 1.86281078 77.05498961 4.7043457 74.79467773 C7.62784522 64.41442519 8.4519782 48.57220185 3.6496582 38.80639648 C1.69715282 35.51026352 -0.52591746 32.47923429 -2.97192383 29.53369141 C-4.45376822 27.58696002 -5.54038538 25.54909184 -6.70581055 23.40014648 C-8.71879507 20.11163959 -8.71879507 20.11163959 -12.5300293 18.97827148 C-13.69018555 19.06206055 -14.8503418 19.14584961 -16.0456543 19.23217773 C-17.89223633 19.34819336 -17.89223633 19.34819336 -19.77612305 19.46655273 C-21.85742592 19.66059207 -23.94445736 19.81318852 -26.03393555 19.87280273 Z " fill="#D7D8D7" transform="translate(238.295654296875,8.205322265625)"/>
<path d="M0 0 C4.1123483 0.53431904 6.12656137 2.69810275 9.0625 5.5 C12.72816612 8.94402692 16.44269532 12.23145921 20.375 15.375 C25.1706049 19.24154184 29.66878667 23.34851983 34.16137695 27.5559082 C38.37411123 31.47892724 42.76404453 35.11903719 47.25390625 38.72265625 C50.79757744 41.66143336 54.15602502 44.78362348 57.52416992 47.91870117 C60.71341919 50.86946347 63.98373905 53.66000223 67.375 56.375 C72.59054761 60.56416433 77.46451601 65.06182124 82.31787109 69.65966797 C82.88328613 70.19350098 83.44870117 70.72733398 84.03125 71.27734375 C84.78245117 71.99265259 84.78245117 71.99265259 85.54882812 72.72241211 C87.18291912 74.21834029 87.18291912 74.21834029 90 76 C89.40083121 81.76374328 88.28552596 87.10942236 86.75 92.6875 C84.99159302 99.14839914 83.34848622 105.62381935 81.828125 112.14453125 C79.68848266 121.21912225 77.45428623 130.26898196 75.1875 139.3125 C75.01865547 139.98637568 74.84981094 140.66025135 74.67584991 141.3545475 C73.27560001 146.94159847 71.87229022 152.52787996 70.46887207 158.11413574 C65.19622283 179.07116185 65.19622283 179.07116185 60.0625 200.0625 C59.86309814 200.88258545 59.66369629 201.7026709 59.45825195 202.54760742 C58.39252552 207.01986073 57.57555408 211.43797663 57 216 C56.67 215.34 56.34 214.68 56 214 C54.9171875 213.566875 54.9171875 213.566875 53.8125 213.125 C50.53812543 211.81525017 47.89762006 209.99613826 45 208 C44.34 207.67 43.68 207.34 43 207 C45.08305577 203.31234314 47.16649468 199.62490288 49.25 195.9375 C49.83652344 194.89916016 50.42304688 193.86082031 51.02734375 192.79101562 C51.88779297 191.26831055 51.88779297 191.26831055 52.765625 189.71484375 C53.28930664 188.78792725 53.81298828 187.86101074 54.35253906 186.90600586 C56 184 56 184 58.06069946 180.92710876 C60.59373259 176.46445063 60.63296496 172.30205781 60.67626953 167.26025391 C60.71087784 165.83200035 60.71087784 165.83200035 60.7461853 164.37489319 C60.81450217 161.24204776 60.85173248 158.109987 60.8828125 154.9765625 C60.89661831 153.90199169 60.91042412 152.82742088 60.92464828 151.72028732 C60.99617976 146.03650114 61.04333441 140.35310849 61.07080078 134.66894531 C61.10393813 128.81064888 61.22085953 122.95716475 61.35708809 117.10048866 C61.44678636 112.58266192 61.47379714 108.06598495 61.48403549 103.54734421 C61.49978876 101.38859589 61.53898139 99.22988171 61.60248184 97.07201004 C62.3919658 86.11275228 62.3919658 86.11275228 58.61563301 76.28720284 C55.76708363 73.88244174 52.78730074 72.3169912 49.38981628 70.82792664 C43.20993041 67.49548114 41.62829304 61.55671028 39.1875 55.1875 C33.91454257 42.10745967 26.88757894 31.99533323 17.5625 21.5 C11.50492197 14.67669558 11.50492197 14.67669558 10 11 C9.34 11 8.68 11 8 11 C6.56197818 9.4089357 5.19674665 7.7513985 3.875 6.0625 C3.15054687 5.14597656 2.42609375 4.22945313 1.6796875 3.28515625 C0 1 0 1 0 0 Z " fill="#DADBDA" transform="translate(269,103)"/>
<path d="M0 0 C1.421875 1.609375 1.421875 1.609375 2.75 3.75 C3.19859375 4.44609375 3.6471875 5.1421875 4.109375 5.859375 C5.19953668 8.47958815 4.96879158 9.3734423 4 12 C2.63989258 13.39697266 2.63989258 13.39697266 0.89453125 14.6640625 C0.24830811 15.14085449 -0.39791504 15.61764648 -1.0637207 16.10888672 C-1.76456787 16.6092041 -2.46541504 17.10952148 -3.1875 17.625 C-3.91219482 18.15496582 -4.63688965 18.68493164 -5.38354492 19.23095703 C-7.58060496 20.83270482 -9.78812686 22.41878909 -12 24 C-12.60102539 24.43119141 -13.20205078 24.86238281 -13.82128906 25.30664062 C-16.04665546 26.90189459 -18.2745825 28.49340702 -20.5078125 30.07763672 C-27.9270299 35.3460263 -35.22761867 40.77639727 -42.54443359 46.18554688 C-46.52649198 49.12794675 -50.51338768 52.0637748 -54.5 55 C-59.26382727 58.50887215 -64.02671801 62.01897805 -68.78515625 65.53515625 C-76.47230633 71.21238863 -84.17698709 76.86088431 -91.9375 82.4375 C-98.35111784 87.04783814 -104.69196022 91.74632638 -111 96.5 C-117.58082792 101.4582019 -124.19553583 106.36282919 -130.875 111.1875 C-131.97134766 111.98027344 -131.97134766 111.98027344 -133.08984375 112.7890625 C-134.44214461 113.76221359 -135.79797182 114.73049094 -137.15795898 115.69287109 C-138.85658455 116.89823111 -140.53665866 118.12962149 -142.21484375 119.36328125 C-145.9155573 121.53803437 -147.91928364 121.30660991 -152.0078125 120.59765625 C-154 120 -154 120 -156.0625 118.4375 C-157.44453384 114.84421202 -157.96991869 111.72043439 -157 108 C-155.09920528 105.40095416 -152.65417218 103.7844689 -150 102 C-148.69095703 101.11054688 -148.69095703 101.11054688 -147.35546875 100.203125 C-145.33242047 98.84900969 -143.30191443 97.50599566 -141.265625 96.171875 C-138.0204273 94.01358562 -134.8505299 91.77677032 -131.6875 89.5 C-117.61472035 79.37377832 -103.31710532 69.56047517 -88.9934082 59.79370117 C-82.45111073 55.32580751 -75.96284699 50.78316775 -69.47973633 46.22998047 C-63.84714249 42.27922384 -58.18492461 38.3750134 -52.5 34.5 C-38.65837274 25.06095886 -24.96470687 15.40975242 -11.29052734 5.73022461 C-10.63648926 5.26753174 -9.98245117 4.80483887 -9.30859375 4.328125 C-8.73939209 3.9249707 -8.17019043 3.52181641 -7.58374023 3.10644531 C-3.13724625 0 -3.13724625 0 0 0 Z " fill="#E4BE65" transform="translate(334,397)"/>
<path d="M0 0 C3.19445695 1.39713612 5.18934812 3.02532898 7.5625 5.5625 C10.70658446 8.80026295 13.97627321 11.68004112 17.5 14.5 C22.33394306 18.37659311 26.73241066 22.51230577 31 27 C27.69488983 29.20340678 24.75873475 29.87590151 20.94921875 30.6640625 C20.23466019 30.81733505 19.52010162 30.9706076 18.78388977 31.12852478 C16.41976298 31.63388255 14.05376521 32.12975928 11.6875 32.625 C10.04092479 32.97344801 8.39444166 33.32233135 6.74804688 33.67163086 C4.1705017 34.2179103 1.59275669 34.76315282 -0.98562622 35.3054657 C-6.35210926 36.43457432 -11.71313893 37.58603285 -17.07035828 38.75830078 C-20.54204071 39.51726644 -24.01542614 40.26823776 -27.48910522 41.01800537 C-29.15730237 41.37975864 -30.82481417 41.7446875 -32.49160767 42.112854 C-34.82584215 42.62748423 -37.16244728 43.12959848 -39.5 43.62890625 C-40.18801193 43.78366928 -40.87602386 43.93843231 -41.58488464 44.09788513 C-46.12629009 45.05037084 -49.72437844 45.46157548 -53.73828125 42.88354492 C-54.25777344 42.42052979 -54.77726562 41.95751465 -55.3125 41.48046875 C-55.90732178 40.95815674 -56.50214355 40.43584473 -57.11499023 39.89770508 C-58.04807007 39.05115356 -58.04807007 39.05115356 -59 38.1875 C-59.648479 37.61088623 -60.29695801 37.03427246 -60.96508789 36.44018555 C-62.98584196 34.6366693 -64.99312213 32.81893139 -67 31 C-68.29016518 29.84613117 -69.58052371 28.69247849 -70.87109375 27.5390625 C-72.06098603 26.46474792 -73.24983611 25.38927758 -74.4375 24.3125 C-74.99888672 23.80807373 -75.56027344 23.30364746 -76.13867188 22.78393555 C-77.46518011 21.56412654 -78.73855142 20.28697537 -80 19 C-80 18.34 -80 17.68 -80 17 C-75.55951149 17.98677522 -71.85306434 19.44101837 -68.03125 21.9453125 C-55.01518804 30.23646873 -40.87811421 28.78432881 -26 28 C-25.70053467 27.37512695 -25.40106934 26.75025391 -25.0925293 26.10644531 C-23.2249821 22.50573086 -20.40893155 20.1409753 -17 18 C-12.02231805 17.18547023 -8.40053086 18.39584136 -3.8671875 20.265625 C-1.61788945 21.15028616 0.61575535 21.62746177 3 22 C3.99 20.515 3.99 20.515 5 19 C5.66 19 6.32 19 7 19 C6.21012527 17.08259417 5.41802852 15.16610359 4.625 13.25 C4.18414062 12.18265625 3.74328125 11.1153125 3.2890625 10.015625 C2.09211953 7.10141841 2.09211953 7.10141841 0.8359375 4.796875 C0 3 0 3 0 0 Z " fill="#D9D9D9" transform="translate(415,128)"/>
<path d="M0 0 C1.13824219 -0.00515625 2.27648437 -0.0103125 3.44921875 -0.015625 C6.3125 0.25 6.3125 0.25 8.3125 2.25 C7.879375 2.75789063 7.44625 3.26578125 7 3.7890625 C3.32312707 8.24743142 3.32312707 8.24743142 1.9375 13.75 C2.06125 14.575 2.185 15.4 2.3125 16.25 C3.9625 16.58 5.6125 16.91 7.3125 17.25 C7.66441406 16.74210937 8.01632813 16.23421875 8.37890625 15.7109375 C12.968645 9.31166728 17.64575984 3.77120005 25.3125 1.25 C32.86448432 0.26595356 38.69851679 1.5918957 45.3125 5.25 C44.53105647 9.48123083 42.37114014 12.21448544 39.8828125 15.640625 C37.75646778 18.99484634 37.75646778 18.99484634 35.3125 26.25 C15.1825 26.25 -4.9475 26.25 -25.6875 26.25 C-24.72270471 16.60204712 -23.91095648 11.95685089 -16.91015625 5.6484375 C-11.51431268 1.61041015 -6.80344799 -0.03103055 0 0 Z " fill="#DADBDB" transform="translate(46.6875,358.75)"/>
<path d="M0 0 C8.01746824 4.28391624 13.0632323 9.65362711 16.0625 18.375 C16.0625 20.025 16.0625 21.675 16.0625 23.375 C2.2025 23.375 -11.6575 23.375 -25.9375 23.375 C-26.5975 19.415 -27.2575 15.455 -27.9375 11.375 C-28.5975 10.055 -29.2575 8.735 -29.9375 7.375 C-29.875 5.3125 -29.875 5.3125 -28.9375 3.375 C-20.63044606 -2.62453896 -9.54801469 -3.94410245 0 0 Z " fill="#D9DADA" transform="translate(454.9375,361.625)"/>
<path d="M0 0 C0.763125 0.5775 1.52625 1.155 2.3125 1.75 C1.20896469 6.64345455 -0.28655052 10.97357415 -3.6875 14.75 C-6.65346937 15.9372512 -9.46658046 16.50515713 -12.609375 17.0625 C-16.53769737 17.9398918 -19.41736216 19.66286369 -22.75 21.859375 C-24.6875 22.75 -24.6875 22.75 -26.56640625 22.578125 C-30.43496527 21.06774836 -34.04367865 19.05572653 -37.71484375 17.125 C-40.43548652 15.86656865 -42.73779223 15.18457941 -45.6875 14.75 C-45.05973479 8.15846527 -42.24215958 4.01858963 -37.5 -0.4375 C-26.27167734 -9.53960837 -11.53088086 -7.59681562 0 0 Z " fill="#DBDCDB" transform="translate(445.6875,336.25)"/>
<path d="M0 0 C1.60986328 1.83251953 1.60986328 1.83251953 3.3203125 4.3828125 C3.93777344 5.30320312 4.55523437 6.22359375 5.19140625 7.171875 C5.82949219 8.14640625 6.46757812 9.1209375 7.125 10.125 C7.77082031 11.07632812 8.41664063 12.02765625 9.08203125 13.0078125 C10.00435547 14.4 10.00435547 14.4 10.9453125 15.8203125 C11.50750488 16.66867676 12.06969727 17.51704102 12.64892578 18.39111328 C14.14752013 21.28485727 14.62798847 23.77883857 15 27 C12.09727222 29.04145437 9.17584371 31.05434807 6.25 33.0625 C5.425 33.64322266 4.6 34.22394531 3.75 34.82226562 C2.95078125 35.36689453 2.1515625 35.91152344 1.328125 36.47265625 C0.22839355 37.23461304 0.22839355 37.23461304 -0.89355469 38.01196289 C-3 39 -3 39 -5.08642578 38.91723633 C-7.65284914 37.68706887 -8.47226447 36.27493145 -9.9453125 33.8515625 C-10.72455078 32.59085937 -10.72455078 32.59085937 -11.51953125 31.3046875 C-12.04933594 30.42039062 -12.57914062 29.53609375 -13.125 28.625 C-13.66253906 27.7484375 -14.20007813 26.871875 -14.75390625 25.96875 C-15.75323765 24.33891775 -16.74743852 22.70592089 -17.73486328 21.06884766 C-18.78339056 19.3542162 -19.88515327 17.67227009 -21 16 C-21 14.68 -21 13.36 -21 12 C-19.39526367 10.44433594 -19.39526367 10.44433594 -17.16796875 8.984375 C-16.36939453 8.45585937 -15.57082031 7.92734375 -14.74804688 7.3828125 C-13.90306641 6.84398437 -13.05808594 6.30515625 -12.1875 5.75 C-11.35412109 5.19570313 -10.52074219 4.64140625 -9.66210938 4.0703125 C-3.42129772 0 -3.42129772 0 0 0 Z " fill="#A7A7A7" transform="translate(357,370)"/>
<path d="M0 0 C5.2907643 3.03666054 9.48204042 6.45868614 11.4296875 12.38671875 C11.92982307 14.5688171 12.33320318 16.71883801 12.625 18.9375 C9.64573012 20.24093057 6.951896 21.07863471 3.75 21.75 C-0.79811071 22.81353159 -3.73904691 25.05903714 -7.375 27.9375 C-10.37379611 26.82683477 -11.50565495 25.76841712 -13.5 23.1875 C-17.61560415 18.00158393 -23.6268825 14.60083871 -30 13.0625 C-30.78375 13.02125 -31.5675 12.98 -32.375 12.9375 C-31.33586219 7.49098458 -27.95261126 3.90658834 -23.62109375 0.59765625 C-16.26443987 -3.71804258 -7.64310909 -3.47623335 0 0 Z " fill="#D7D8D8" transform="translate(483.375,340.0625)"/>
<path d="M0 0 C7.62646961 3.20764254 14.60660051 7.87651816 18.48828125 15.31640625 C18.48828125 16.63640625 18.48828125 17.95640625 18.48828125 19.31640625 C1.65828125 19.31640625 -15.17171875 19.31640625 -32.51171875 19.31640625 C-31.26701901 11.84820784 -28.40699765 8.16080055 -22.33984375 3.73046875 C-15.12367045 -0.82572826 -8.54496707 -2.32561312 0 0 Z " fill="#DADBDA" transform="translate(124.51171875,365.68359375)"/>
<path d="M0 0 C2.55173937 1.79583812 4.95604147 3.63117389 7 6 C7 6.66 7 7.32 7 8 C7.66 8.33 8.32 8.66 9 9 C8.05125 9.5775 7.1025 10.155 6.125 10.75 C3.23865902 12.82816551 2.15904259 13.75468075 1 17 C1 16.34 1 15.68 1 15 C-10.88 15 -22.76 15 -35 15 C-35.66 11.7 -36.32 8.4 -37 5 C-25.59436608 -4.47934908 -13.66775604 -7.71604816 0 0 Z " fill="#DADAD9" transform="translate(187,370)"/>
<path d="M0 0 C5.75083906 3.29859448 8.71302865 6.6903839 11.40625 12.61328125 C12.0703125 15.1875 12.0703125 15.1875 12.0703125 23.1875 C3.8203125 23.1875 -4.4296875 23.1875 -12.9296875 23.1875 C-13.5896875 20.2175 -14.2496875 17.2475 -14.9296875 14.1875 C-16.54446 10.76626725 -16.54446 10.76626725 -18.4921875 7.75 C-19.11222656 6.74066406 -19.73226563 5.73132813 -20.37109375 4.69140625 C-20.88542969 3.86511719 -21.39976562 3.03882813 -21.9296875 2.1875 C-22.2596875 1.5275 -22.5896875 0.8675 -22.9296875 0.1875 C-14.86771273 -3.92925307 -8.16475925 -4.09660394 0 0 Z " fill="#D8D9D8" transform="translate(407.9296875,361.8125)"/>
<path d="M0 0 C6.75849531 12.05628358 10.35040307 27.53673562 13 41 C13.20625 42.03769531 13.4125 43.07539063 13.625 44.14453125 C15.48765313 55.04881309 15.19471721 65.97301444 15 77 C14.34 77 13.68 77 13 77 C12.91363281 76.42636719 12.82726562 75.85273438 12.73828125 75.26171875 C8.99317634 52.61929546 1.53012372 29.76756186 -10.734375 10.23828125 C-12 8 -12 8 -12 5 C-10.13671875 3.359375 -10.13671875 3.359375 -7.6875 1.75 C-6.88699219 1.20859375 -6.08648437 0.6671875 -5.26171875 0.109375 C-3 -1 -3 -1 0 0 Z " fill="#A8A8A8" transform="translate(375,407)"/>
<path d="M0 0 C3.12300209 2.69794321 5.05425203 5.16327865 7.06640625 8.78515625 C7.06640625 10.10515625 7.06640625 11.42515625 7.06640625 12.78515625 C-6.46359375 12.78515625 -19.99359375 12.78515625 -33.93359375 12.78515625 C-34.93359375 3.78515625 -34.93359375 3.78515625 -33.203125 1.41015625 C-32.39230469 0.87390625 -31.58148438 0.33765625 -30.74609375 -0.21484375 C-29.94816406 -0.77171875 -29.15023438 -1.32859375 -28.328125 -1.90234375 C-19.54120974 -6.71866272 -8.04578962 -5.60686822 0 0 Z " fill="#DADBDB" transform="translate(513.93359375,372.21484375)"/>
<path d="M0 0 C4.28465714 2.2670898 7.78126939 4.78226049 10.22265625 9.0546875 C11.09765625 12.6796875 11.09765625 12.6796875 11.22265625 16.0546875 C10.56265625 17.0446875 9.90265625 18.0346875 9.22265625 19.0546875 C7.94455078 18.56548828 7.94455078 18.56548828 6.640625 18.06640625 C3.06854094 17.00906937 0.24878162 16.82060839 -3.46484375 16.8671875 C-5.29402344 16.88845703 -5.29402344 16.88845703 -7.16015625 16.91015625 C-11.26731353 17.07426513 -15.30458161 17.4667852 -19.375 18.03125 C-22.25080514 18.05930664 -24.19196738 17.26211818 -26.77734375 16.0546875 C-27.49229702 9.26263143 -27.49229702 9.26263143 -25.58203125 6.03515625 C-18.94956792 -1.88047209 -9.88949157 -3.36604355 0 0 Z " fill="#DADAD9" transform="translate(82.77734375,335.9453125)"/>
<path d="M0 0 C3.90483095 3.98408029 7.44930134 9.45204667 7.4375 15.1875 C7.293125 16.115625 7.14875 17.04375 7 18 C6.34 18 5.68 18 5 18 C4.896875 18.721875 4.79375 19.44375 4.6875 20.1875 C3.88479885 23.47127745 3.25768011 25.45100633 1 28 C-1.99794399 28.36182083 -4.06927194 28.36507339 -7 28 C-7.78632813 27.9278125 -8.57265625 27.855625 -9.3828125 27.78125 C-12.5920017 27.31522913 -15.06565111 26.80120417 -17.5625 24.66015625 C-19.56429533 21.86159371 -20.14242009 19.95906293 -19.6328125 16.52734375 C-18.88054753 13.95645882 -17.9572533 11.50041164 -17 9 C-16.79375 7.865625 -16.5875 6.73125 -16.375 5.5625 C-14.73548453 2.50703935 -13.92505912 2.27715356 -10.75 1.125 C-7.09822842 0.02946852 -3.79908728 -0.49881915 0 0 Z " fill="#DFDFDF" transform="translate(157,263)"/>
<path d="M0 0 C19.89516471 7.30613393 44.37858001 26.44991438 55 45 C55 46.32 55 47.64 55 49 C53.390625 50.5546875 53.390625 50.5546875 51.25 51.875 C50.55390625 52.32617188 49.8578125 52.77734375 49.140625 53.2421875 C47 54 47 54 45.01953125 53.58984375 C41.97489884 51.19300547 40.34305228 47.99397971 38.4375 44.6875 C33.65823824 36.7342656 28.20017159 29.87481293 22 23 C21.08160124 21.960015 20.16363121 20.91965123 19.24609375 19.87890625 C13.82480065 13.79293723 8.14286648 8.23297522 2.01953125 2.86328125 C1.35308594 2.24839844 0.68664062 1.63351562 0 1 C0 0.67 0 0.34 0 0 Z " fill="#A7A6A5" transform="translate(292,317)"/>
<path d="M0 0 C2.77067709 2.40611431 2.72081603 2.94188406 3 6.4375 C3.03867188 7.23027344 3.07734375 8.02304687 3.1171875 8.83984375 C3.50714196 12.2017239 4.92450443 13.81621239 7.375 16.0625 C11.4737938 18.33960767 15.77735575 18.59494296 20.375 19.0625 C20.87 20.5475 20.87 20.5475 21.375 22.0625 C19.065 23.7125 16.755 25.3625 14.375 27.0625 C13.42625 26.175625 12.4775 25.28875 11.5 24.375 C2.72227981 17.04281706 -4.56518699 15.37422919 -15.76953125 15.69140625 C-19.2410603 16.02554532 -21.48049154 16.69603821 -24.625 18.0625 C-25.945 18.0625 -27.265 18.0625 -28.625 18.0625 C-28.10976475 11.62205941 -26.57296303 7.74079489 -21.74609375 3.35546875 C-14.72073486 -2.0109503 -8.37574267 -2.16614035 0 0 Z " fill="#D5D5D3" transform="translate(129.625,341.9375)"/>
<path d="M0 0 C0.96164063 -0.00257813 1.92328125 -0.00515625 2.9140625 -0.0078125 C5.375 0.125 5.375 0.125 7.375 1.125 C6.90425297 3.66703398 6.36423007 5.1396471 4.8125 7.25 C2.73729815 11.40040369 2.61823858 15.5621738 3.375 20.125 C4.59937835 22.41951917 4.59937835 22.41951917 6.375 24.125 C9.47697397 24.93446422 9.47697397 24.93446422 12.375 25.125 C9.86835619 27.63164381 7.75800485 28.12999857 4.375 29.125 C3.55 29.455 2.725 29.785 1.875 30.125 C-0.625 30.125 -0.625 30.125 -2.1640625 28.8828125 C-3.20686961 27.80918351 -4.21909876 26.70483117 -5.1953125 25.5703125 C-6.67420758 23.85744862 -6.67420758 23.85744862 -9.625 23.125 C-9.625 22.465 -9.625 21.805 -9.625 21.125 C-13.255 21.785 -16.885 22.445 -20.625 23.125 C-17.625 20.125 -17.625 20.125 -15.9375 18.9375 C-13.78525076 15.96534629 -14.31509387 12.6255306 -14.625 9.125 C-15.04231018 6.76970719 -15.04231018 6.76970719 -15.625 5.125 C-10.07264673 1.21311474 -6.72647029 -0.01813065 0 0 Z " fill="#D6D6D6" transform="translate(228.625,342.875)"/>
<path d="M0 0 C3.73552618 1.74928558 5.35631247 4.59150623 7.19921875 8.17578125 C8.61220579 12.60602008 7.76864637 15.75573015 6.09375 19.98046875 C5.743125 20.97046875 5.3925 21.96046875 5.03125 22.98046875 C4.09375 24.98046875 4.09375 24.98046875 3.09375 25.98046875 C0.99153307 26.08015547 -1.11417604 26.11015078 -3.21875 26.10546875 C-4.36988281 26.10804688 -5.52101562 26.110625 -6.70703125 26.11328125 C-9.31876737 26.00485753 -11.42932984 25.75106613 -13.90625 24.98046875 C-16.84084204 15.99328062 -16.84084204 15.99328062 -15.90625 10.98046875 C-12.15150824 5.08016027 -7.62199699 -0.92591161 0 0 Z " fill="#2B2C2B" transform="translate(159.90625,159.01953125)"/>
<path d="M0 0 C6.34200412 0.06369301 10.67547938 2.54928651 15.5625 6.4375 C18.73314073 9.91010651 19.763922 12.21378253 19.8125 16.8125 C19.73 18.00875 19.6475 19.205 19.5625 20.4375 C18.89863281 20.55867188 18.23476563 20.67984375 17.55078125 20.8046875 C16.66777344 20.97226562 15.78476562 21.13984375 14.875 21.3125 C13.95589844 21.48523438 13.03679687 21.65796875 12.08984375 21.8359375 C9.44824551 22.33935336 9.44824551 22.33935336 6.9375 23.9375 C4.5625 24.4375 4.5625 24.4375 2.69921875 23.33203125 C1.29930995 22.2643042 -0.07831103 21.16679901 -1.43359375 20.04296875 C-3.91284311 18.05666956 -6.54878014 16.73742394 -9.4375 15.4375 C-8.68851602 12.34794107 -7.83815721 9.29872465 -6.9375 6.25 C-6.6796875 5.36957031 -6.421875 4.48914063 -6.15625 3.58203125 C-4.94265081 -0.03897937 -3.65233288 0.18802962 0 0 Z " fill="#D8D9D8" transform="translate(450.4375,309.5625)"/>
<path d="M0 0 C2.85282169 1.02881286 4.5664196 2.14584351 7 4 C7 7.56439516 6.52315732 7.77213102 4.125 10.1875 C0.72029749 13.94552069 -0.13160496 17.05014829 -1 22 C-2.65 22.33 -4.3 22.66 -6 23 C-6.33 22.01 -6.66 21.02 -7 20 C-9.42383077 18.83046584 -9.42383077 18.83046584 -12 18 C-12.66 17.67 -13.32 17.34 -14 17 C-16.29924497 16.72975292 -18.59801487 16.55502159 -20.90625 16.37890625 C-23 16 -23 16 -25 14 C-25.125 10.75 -25.125 10.75 -24 7 C-16.71272863 -0.17565014 -9.99225627 -0.85584397 0 0 Z " fill="#D9D9D8" transform="translate(166,336)"/>
<path d="M0 0 C8.1334002 1.29588766 8.1334002 1.29588766 11 3.625 C13.7737402 10.21263297 13.00589721 15.39233861 11 22 C8.5622037 22.05397335 6.12560315 22.09365616 3.6875 22.125 C2.65206055 22.15013672 2.65206055 22.15013672 1.59570312 22.17578125 C-2.17135396 22.21217794 -3.78431704 22.14378864 -7 20 C-8.54724495 16.34287557 -8.94199785 11.85699908 -8 8 C-6.36126068 6.08883598 -4.66599337 4.69984975 -2.62890625 3.2265625 C-0.85426954 2.07978851 -0.85426954 2.07978851 0 0 Z " fill="#2F2F2E" transform="translate(284,222)"/>
<path d="M0 0 C3.35548626 3.35548626 4.19966101 7.55096662 5.125 12.125 C5.125 13.115 5.125 14.105 5.125 15.125 C3.171875 15.80859375 1.21875 16.4921875 -0.734375 17.17578125 C-3.07318808 18.21288267 -4.88663508 19.52624713 -6.875 21.125 C-7.3596875 20.52171875 -7.844375 19.9184375 -8.34375 19.296875 C-12.8000557 13.98358744 -16.45142999 10.76325197 -22.875 8.125 C-21.15975527 4.37191864 -19.3014072 2.49085259 -15.875 0.125 C-10.67498262 -1.52221047 -5.20478045 -1.58406362 0 0 Z " fill="#D6D6D5" transform="translate(106.875,319.875)"/>
<path d="M0 0 C5.78925941 -0.27732979 9.04104337 0.2877047 13.609375 4.1875 C14.24875 4.661875 14.888125 5.13625 15.546875 5.625 C16.609375 7.1875 16.609375 7.1875 16.296875 9.875 C16.07 10.638125 15.843125 11.40125 15.609375 12.1875 C15.01769531 12.22488281 14.42601562 12.26226562 13.81640625 12.30078125 C8.64922618 12.65091684 8.64922618 12.65091684 4.109375 14.9375 C1.609375 16.1875 1.609375 16.1875 -0.41015625 15.78515625 C-1.96200321 15.25377424 -3.50267201 14.68876694 -5.03125 14.09375 C-8.41822112 12.79279421 -11.86291012 12.02132352 -15.390625 11.1875 C-15.17339723 7.38601401 -14.42169961 6.21929727 -11.703125 3.4375 C-7.91524477 0.58091893 -4.65228192 0.36488486 0 0 Z " fill="#D8D8D7" transform="translate(189.390625,345.8125)"/>
<path d="M0 0 C2.23828125 2.546875 2.23828125 2.546875 4.3125 5.75 C5.00988281 6.79671875 5.70726562 7.8434375 6.42578125 8.921875 C8.03996643 12.07814776 8.56231893 13.54088658 8 17 C6.53206719 20.18608143 4.65663368 22.70538139 2 25 C-1.01734923 25.76945153 -2.84242497 25.48166399 -6 25 C-7.58780904 23.41219096 -7.50327725 21.49392559 -7.875 19.3125 C-8.66982053 15.09152127 -10.00166854 11.81499642 -12 8 C-12 4 -12 4 -10.64453125 2.48046875 C-10.03996094 2.05378906 -9.43539062 1.62710938 -8.8125 1.1875 C-8.22082031 0.74792969 -7.62914062 0.30835938 -7.01953125 -0.14453125 C-4.17165484 -1.35088509 -2.87464011 -1.13122412 0 0 Z " fill="#DCDEDD" transform="translate(219,154)"/>
<path d="M0 0 C3.35966858 0.53994674 6.3331757 1.32666613 9.5 2.5625 C10.43500141 6.6573967 10.96454184 10.37141373 10.5 14.5625 C8.10119338 18.12081847 5.35561671 20.65886479 1.5 22.5625 C-2.92489301 22.26050433 -5.26180035 20.53084968 -8.5 17.5625 C-10.13661939 14.28926123 -10.15797008 11.08643589 -9.5 7.5625 C-7.18853316 3.16245777 -4.96484462 0.79792146 0 0 Z " fill="#DBDCDB" transform="translate(272.5,172.4375)"/>
<path d="M0 0 C2.60067167 4.58013028 3.02471763 8.8448821 2 14 C0.16420541 17.117592 -1.85859045 19.19705094 -5 21 C-9.68827032 21.15892442 -12.55301668 20.17122466 -16 17 C-15.40690453 11.1678945 -14.77974404 6.63402118 -11.4375 1.6875 C-7.78599676 -0.84046378 -4.30967786 -0.33151368 0 0 Z " fill="#2F2E2E" transform="translate(370,280)"/>
<path d="M0 0 C1.64594164 1.64594164 1.40499765 3.48464702 1.5625 5.75 C1.55859375 8.4921875 1.55859375 8.4921875 1 11 C-0.90069983 12.80977797 -2.67303154 13.78306454 -5.0546875 14.8671875 C-7.41394451 16.24105202 -8.00736598 17.50274178 -9 20 C-11.31 20 -13.62 20 -16 20 C-20 13.81818182 -20 13.81818182 -20 10.375 C-18.73431016 7.36898662 -17.3082112 5.3082112 -15 3 C-13.68 3 -12.36 3 -11 3 C-11 2.34 -11 1.68 -11 1 C-6.93623282 -1.03188359 -4.39561557 -1.09890389 0 0 Z " fill="#DDDFDF" transform="translate(238,239)"/>
<path d="M0 0 C8.394605 1.61434712 8.394605 1.61434712 11.25 4.625 C12.49338693 8.98521783 12.92928403 13.13352715 12.25 17.625 C9.55661222 20.49005426 8.4666557 20.6143448 4.4375 20.8125 C-0.23995007 20.03146237 -2.51549659 17.3189281 -5.5 13.828125 C-7.011009 11.16497165 -7.10757267 9.64503942 -6.75 6.625 C-3.93918919 0.89527027 -3.93918919 0.89527027 0 0 Z " fill="#DDDDDD" transform="translate(303.75,61.375)"/>
<path d="M0 0 C5.1171875 1.0234375 5.1171875 1.0234375 7.4375 3.6875 C9.23649175 8.36487854 10.10933619 12.69671691 9.4375 17.6875 C6.73157279 20.23425502 5.20384077 20.70380512 1.5 20.625 C-2.22493379 19.48471415 -4.63225239 18.27702115 -7.5625 15.6875 C-8.85129093 12.16028272 -9.04887036 10.00369657 -7.73828125 6.45703125 C-5.59806113 2.43967454 -4.60268637 0.88823772 0 0 Z " fill="#2E2D2D" transform="translate(127.5625,227.3125)"/>
<path d="M0 0 C4.73074665 1.02499511 6.53363023 2.78660757 9.5 6.5078125 C11.58100743 10.34466994 10.89092592 12.67664355 9.75 16.8125 C9.42 17.4725 9.09 18.1325 8.75 18.8125 C5.63370851 19.85126383 3.3905571 19.94611625 0.125 19.9375 C-0.85726563 19.94007812 -1.83953125 19.94265625 -2.8515625 19.9453125 C-5.25 19.8125 -5.25 19.8125 -6.25 18.8125 C-6.40272417 16.73310164 -6.47195322 14.64731069 -6.5 12.5625 C-6.52578125 11.42296875 -6.5515625 10.2834375 -6.578125 9.109375 C-6.08034378 4.10785896 -5.02968146 1.25742036 0 0 Z " fill="#2A2B2B" transform="translate(336.25,102.1875)"/>
<path d="M0 0 C0.33 0.33 0.66 0.66 1 1 C0.90968426 3.35694954 0.75311872 5.71153582 0.5625 8.0625 C0.46066406 9.35285156 0.35882813 10.64320313 0.25390625 11.97265625 C0.17011719 12.97167969 0.08632812 13.97070312 0 15 C-0.66 15 -1.32 15 -2 15 C-2.33 15.99 -2.66 16.98 -3 18 C-5.97 18.33 -8.94 18.66 -12 19 C-14.68405472 13.63189057 -14.92381789 8.91408417 -14 3 C-9.67154614 -1.86951059 -5.89157623 -1.29814392 0 0 Z " fill="#DCDCDC" transform="translate(181,139)"/>
<path d="M0 0 C3.96284623 1.69836267 7.30398684 3.37233386 9.625 7.125 C9.67360161 11.00772876 8.87381624 14.45972434 7.625 18.125 C6.625 19.125 6.625 19.125 4.33984375 19.22265625 C2.96505859 19.20525391 2.96505859 19.20525391 1.5625 19.1875 C0.64339844 19.17847656 -0.27570313 19.16945313 -1.22265625 19.16015625 C-1.93292969 19.14855469 -2.64320313 19.13695312 -3.375 19.125 C-3.66503906 18.31095703 -3.66503906 18.31095703 -3.9609375 17.48046875 C-4.22132813 16.76503906 -4.48171875 16.04960937 -4.75 15.3125 C-5.00523437 14.60480469 -5.26046875 13.89710938 -5.5234375 13.16796875 C-6.4015769 10.87726641 -6.4015769 10.87726641 -8.375 8.125 C-8.27442285 5.00710843 -7.32487118 4.07347872 -5.125 1.8125 C-2.375 0.125 -2.375 0.125 0 0 Z " fill="#2E2E2E" transform="translate(395.375,246.875)"/>
<path d="M0 0 C1.8871875 0.1546875 1.8871875 0.1546875 3.8125 0.3125 C5.98116227 6.00523845 6.83867221 10.00361252 4.3125 15.6875 C3.8175 16.55375 3.3225 17.42 2.8125 18.3125 C1.16578588 18.00467504 -0.47985576 17.69110766 -2.125 17.375 C-3.49978516 17.11396484 -3.49978516 17.11396484 -4.90234375 16.84765625 C-7.1875 16.3125 -7.1875 16.3125 -8.1875 15.3125 C-8.15388627 10.77464581 -7.58554953 6.48323392 -6.125 2.1875 C-3.81690453 -0.04614078 -3.11113546 0.02748353 0 0 Z " fill="#302F2F" transform="translate(287.1875,44.6875)"/>
<path d="M0 0 C1.8515625 1.6796875 1.8515625 1.6796875 3.625 3.875 C4.21539062 4.59429687 4.80578125 5.31359375 5.4140625 6.0546875 C5.93742187 6.69664062 6.46078125 7.33859375 7 8 C7.66 8.66 8.32 9.32 9 10 C8.43181818 15.56818182 8.43181818 15.56818182 7 17 C2.46902014 17.46077761 -0.68767393 17.71346347 -4.4375 14.9375 C-7.50000521 11.42682329 -8.16573204 9.64049699 -8 5 C-5.56468626 0.76075016 -5.01739806 0 0 0 Z " fill="#2F2F2E" transform="translate(389,199)"/>
<path d="M0 0 C13.43553839 -0.91260261 13.43553839 -0.91260261 17.109375 1.23046875 C19.27866097 3.81447116 20 5.63214735 20 9 C16.7 9 13.4 9 10 9 C10 9.99 10 10.98 10 12 C7.36 12 4.72 12 2 12 C1.34 8.04 0.68 4.08 0 0 Z " fill="#323132" transform="translate(292,356)"/>
<path d="M0 0 C1.45184478 4.53701494 2.23509196 8.18061476 2 13 C1.01 13.33 0.02 13.66 -1 14 C-1 14.66 -1 15.32 -1 16 C-2.27875 16.061875 -3.5575 16.12375 -4.875 16.1875 C-5.95394531 16.23970703 -5.95394531 16.23970703 -7.0546875 16.29296875 C-7.69664062 16.19628906 -8.33859375 16.09960938 -9 16 C-11.47036908 12.29444638 -11.66042977 9.29697345 -11 5 C-8.24043411 -0.2983665 -5.74401015 -0.55230867 0 0 Z " fill="#DADAD9" transform="translate(415,298)"/>
<path d="M0 0 C0.88429688 -0.02578125 1.76859375 -0.0515625 2.6796875 -0.078125 C5.125 0.25 5.125 0.25 6.9296875 1.546875 C8.88124397 4.32752408 8.35976771 6.96325212 8.125 10.25 C7.795 11.24 7.465 12.23 7.125 13.25 C5.68760487 13.27712066 4.25006137 13.29645067 2.8125 13.3125 C1.61173828 13.32990234 1.61173828 13.32990234 0.38671875 13.34765625 C-1.875 13.25 -1.875 13.25 -4.875 12.25 C-7.00278189 9.48388354 -6.86295808 8.10790531 -6.5625 4.5625 C-5.54789895 -0.32603234 -4.70189381 0.08177207 0 0 Z " fill="#DCDEDC" transform="translate(361.875,96.75)"/>
<path d="M0 0 C1.45742463 -0.08096803 2.91612807 -0.13917774 4.375 -0.1875 C5.18710937 -0.22230469 5.99921875 -0.25710938 6.8359375 -0.29296875 C7.55007813 -0.19628906 8.26421875 -0.09960938 9 0 C11.16193214 3.24289821 11.57550416 4.2362028 11 8 C9.171875 10.0546875 9.171875 10.0546875 6.75 11.875 C5.96109375 12.49117188 5.1721875 13.10734375 4.359375 13.7421875 C2 15 2 15 -0.171875 14.8203125 C-2 14 -2 14 -4 12 C-3.68789339 7.42243641 -2.18733261 3.99425954 0 0 Z " fill="#313131" transform="translate(251,268)"/>
<path d="M0 0 C2.50063147 2.50063147 2.32420142 3.47811698 2.375 6.9375 C2.40335938 7.81277344 2.43171875 8.68804687 2.4609375 9.58984375 C2 12 2 12 0.1328125 13.78125 C-2.59808264 15.34176151 -3.91154546 15.69490227 -7 15 C-9.4224317 12.18474153 -10.80212806 10.03882766 -11.5 6.375 C-10.15699544 -0.00427166 -5.85818982 -0.65090998 0 0 Z " fill="#DADBDB" transform="translate(200,296)"/>
<path d="M0 0 C2.60084684 0.38061173 4.26388493 1.15492831 6.5625 2.375 C6.64340971 3.99918745 6.70164995 5.62451745 6.75 7.25 C6.78480469 8.15492187 6.81960937 9.05984375 6.85546875 9.9921875 C6.75878906 10.77851562 6.66210938 11.56484375 6.5625 12.375 C2.85834707 14.84443529 0.94105495 14.84413089 -3.4375 14.375 C-5.4375 12.75 -5.4375 12.75 -6.4375 10.375 C-6.23780713 5.58237123 -5.30534992 0.81620768 0 0 Z " fill="#E0E0E0" transform="translate(182.4375,69.625)"/>
<path d="M0 0 C2.75 0.4375 2.75 0.4375 5.625 3.125 C7.75 6.4375 7.75 6.4375 7.6875 9.1875 C6.75 11.4375 6.75 11.4375 4.75 13.4375 C2.3125 13.8125 2.3125 13.8125 -0.25 13.4375 C-2.44527895 11.62071742 -3.16220275 10.25960152 -3.46484375 7.42578125 C-3.49711315 5.42866393 -3.38069492 3.43059753 -3.25 1.4375 C-2.25 0.4375 -2.25 0.4375 0 0 Z " fill="#302F2F" transform="translate(177.25,89.5625)"/>
<path d="M0 0 C1.27536756 0.61569468 2.54580592 1.24165296 3.8125 1.875 C3.3442879 6.65076339 2.56918002 9.91976345 -0.1875 13.875 C-4.9375 13.125 -4.9375 13.125 -7.1875 10.875 C-7.625 8.0625 -7.625 8.0625 -7.1875 4.875 C-3.30864153 -0.18906523 -3.30864153 -0.18906523 0 0 Z " fill="#373636" transform="translate(242.1875,314.125)"/>
<path d="M0 0 C1.64574566 -0.02688151 3.29161413 -0.04634123 4.9375 -0.0625 C5.85402344 -0.07410156 6.77054688 -0.08570313 7.71484375 -0.09765625 C10 0 10 0 11 1 C11.04092937 3.33297433 11.04241723 5.66705225 11 8 C7.27034861 10.03435531 5.33094958 11 1 11 C-0.20272819 8.59454362 -0.10071472 7.05003047 -0.0625 4.375 C-0.05347656 3.55773437 -0.04445312 2.74046875 -0.03515625 1.8984375 C-0.02355469 1.27195313 -0.01195312 0.64546875 0 0 Z " fill="#DCDDDC" transform="translate(169,196)"/>
<path d="M0 0 C0.8146875 0.00257812 1.629375 0.00515625 2.46875 0.0078125 C3.2834375 0.00523438 4.098125 0.00265625 4.9375 0 C6.96875 0.1328125 6.96875 0.1328125 7.96875 1.1328125 C8.15625 4.0703125 8.15625 4.0703125 7.96875 7.1328125 C5.64346713 9.45809537 5.12209102 9.42792275 1.96875 9.4453125 C1.2675 9.46207031 0.56625 9.47882812 -0.15625 9.49609375 C-0.775 9.37621094 -1.39375 9.25632812 -2.03125 9.1328125 C-4.03125 6.1328125 -4.03125 6.1328125 -3.71875 3.5078125 C-2.75548398 0.18016626 -2.75548398 0.18016626 0 0 Z " fill="#DEE0E0" transform="translate(216.03125,36.8671875)"/>
<path d="M0 0 C3.375 -0.1875 3.375 -0.1875 7 0 C9.29013653 3.4352048 9.17842973 4.985331 9 9 C6.20129973 10.39935013 4.09501208 10.25265405 1 10 C-0.9375 8.8125 -0.9375 8.8125 -2 7 C-1.73904456 4.32520673 -1.1995243 2.39904859 0 0 Z " fill="#DFDEDC" transform="translate(387,128)"/>
<path d="M0 0 C0.763125 0.61875 1.52625 1.2375 2.3125 1.875 C6.72405743 4.872733 11.8169418 5.29908821 17 6 C17.33 6.99 17.66 7.98 18 9 C15.69 10.65 13.38 12.3 11 14 C9.96875 13.071875 8.9375 12.14375 7.875 11.1875 C4.78841414 8.52838428 1.75068913 6.64664401 -2 5 C-1.34 4.01 -0.68 3.02 0 2 C0 1.34 0 0.68 0 0 Z " fill="#C6C5C3" transform="translate(133,355)"/>
<path d="M0 0 C2.75 -0.3125 2.75 -0.3125 6 0 C8.4375 2.1875 8.4375 2.1875 10 5 C9.70731707 9.29268293 9.70731707 9.29268293 8 11 C5.6875 11.375 5.6875 11.375 3 11 C0.625 8.875 0.625 8.875 -1 6 C-0.75 2.6875 -0.75 2.6875 0 0 Z " fill="#333132" transform="translate(297,203)"/>
<path d="M0 0 C3.84177074 0.30329769 6.09427672 1.52475424 9 4 C8.125 8.875 8.125 8.875 7 10 C3.52743085 10.30867281 1.6127712 10.38701339 -1.375 8.5 C-1.91125 8.005 -2.4475 7.51 -3 7 C-2.25 2.25 -2.25 2.25 0 0 Z " fill="#313131" transform="translate(155,313)"/>
<path d="M0 0 C1.12587689 2.76351601 1.05900595 3.8414215 0 6.6875 C-2 9 -2 9 -5.5625 9.9375 C-7.2640625 9.9684375 -7.2640625 9.9684375 -9 10 C-9.66 9.34 -10.32 8.68 -11 8 C-10.84285399 4.93565274 -10.41646074 3.44730969 -8.3125 1.1875 C-5.39975854 -0.3082321 -3.23000416 -0.22022756 0 0 Z " fill="#D7D7D7" transform="translate(411,227)"/>
<path d="M0 0 C0.66 1.32 1.32 2.64 2 4 C1.01 4.66 0.02 5.32 -1 6 C-2.19232613 8.05003955 -2.19232613 8.05003955 -3 10 C-4.66870487 9.67702486 -6.33465333 9.33986667 -8 9 C-8.75925781 8.85433594 -9.51851563 8.70867187 -10.30078125 8.55859375 C-11.10902344 8.39488281 -11.91726563 8.23117187 -12.75 8.0625 C-13.52859375 7.90910156 -14.3071875 7.75570313 -15.109375 7.59765625 C-15.73328125 7.40042969 -16.3571875 7.20320313 -17 7 C-17.33 6.34 -17.66 5.68 -18 5 C-15.36 5 -12.72 5 -10 5 C-10 4.01 -10 3.02 -10 2 C-6.7 2 -3.4 2 0 2 C0 1.34 0 0.68 0 0 Z " fill="#DADBDA" transform="translate(312,363)"/>
<path d="M0 0 C2.60639453 1.22174744 3.6304319 2.4146114 5 4.9375 C4.84387203 7.51361144 4.2147105 8.66423209 2.625 10.6875 C1 11.9375 1 11.9375 -2 11.9375 C-2 11.2775 -2 10.6175 -2 9.9375 C-2.99 9.6075 -3.98 9.2775 -5 8.9375 C-5.36253776 3.49943353 -5.36253776 3.49943353 -3.75 1 C-2 -0.0625 -2 -0.0625 0 0 Z " fill="#30302F" transform="translate(427,234.0625)"/>
<path d="M0 0 C2.5 -0.3125 2.5 -0.3125 5 0 C5.66 0.66 6.32 1.32 7 2 C6.66083005 5.18819752 6.01406317 7.95781049 5 11 C3.00045254 11.04254356 0.99958364 11.04080783 -1 11 C-2 10 -2 10 -2.1875 6.625 C-2 3 -2 3 0 0 Z " fill="#363636" transform="translate(135,198)"/>
<path d="M0 0 C3.11875698 0.15993626 4.57800441 0.60613745 6.875 2.75 C8.29737468 5.59474935 7.91172698 7.01616624 7 10 C5.02 10.33 3.04 10.66 1 11 C-1.01544839 8.73262056 -1.94914998 7.42714016 -2.3125 4.375 C-2 2 -2 2 0 0 Z " fill="#313030" transform="translate(370,130)"/>
<path d="M0 0 C2.5625 0.1875 2.5625 0.1875 4.5625 2.1875 C4.8125 5.6875 4.8125 5.6875 4.5625 9.1875 C2.5625 11.1875 2.5625 11.1875 -0.0625 11.3125 C-0.84625 11.27125 -1.63 11.23 -2.4375 11.1875 C-4.26691851 7.42105012 -4.66912684 5.21827875 -3.4375 1.1875 C-2.4375 0.1875 -2.4375 0.1875 0 0 Z " fill="#DEDEDB" transform="translate(326.4375,54.8125)"/>
<path d="M0 0 C3 0.25 3 0.25 5 2.25 C5.25 4.75 5.25 4.75 5 7.25 C3 9.25 3 9.25 0 9.5 C-3 9.25 -3 9.25 -5 7.25 C-5.25 4.75 -5.25 4.75 -5 2.25 C-3 0.25 -3 0.25 0 0 Z " fill="#343433" transform="translate(314,47.75)"/>
<path d="M0 0 C2.5 -0.375 2.5 -0.375 5 0 C7.14915785 3.22373677 7.38286803 4.26703674 7 8 C5 10 5 10 1.9375 10.1875 C-1 10 -1 10 -2 9 C-2.26293056 4.96839809 -2.29404844 3.44107266 0 0 Z " fill="#30312F" transform="translate(419,185)"/>
<path d="M0 0 C1.2375 0.1546875 1.2375 0.1546875 2.5 0.3125 C4.64915785 3.53623677 4.88286803 4.57953674 4.5 8.3125 C2.5 10.3125 2.5 10.3125 0 10.5625 C-2.5 10.3125 -2.5 10.3125 -4.5 8.3125 C-4.75 5.3125 -4.75 5.3125 -4.5 2.3125 C-2.5 0.3125 -2.5 0.3125 0 0 Z " fill="#313130" transform="translate(149.5,146.6875)"/>
<path d="M0 0 C3.0625 0.1875 3.0625 0.1875 5.0625 2.1875 C5.3125 4.6875 5.3125 4.6875 5.0625 7.1875 C3.0625 9.1875 3.0625 9.1875 0.0625 9.4375 C-2.9375 9.1875 -2.9375 9.1875 -4.9375 7.1875 C-4.23164336 0.2701049 -4.23164336 0.2701049 0 0 Z " fill="#DCDCDC" transform="translate(198.9375,54.8125)"/>
<path d="M0 0 C2.5 -0.375 2.5 -0.375 5 0 C7 3 7 3 6.6875 5.5625 C6 8 6 8 5 10 C3.00045254 10.04254356 0.99958364 10.04080783 -1 10 C-2 9 -2 9 -2.1875 6.125 C-2 3 -2 3 0 0 Z " fill="#D8D9D9" transform="translate(292,276)"/>
<path d="M0 0 C0.721875 0.00257813 1.44375 0.00515625 2.1875 0.0078125 C2.909375 0.00523437 3.63125 0.00265625 4.375 0 C6.1875 0.1328125 6.1875 0.1328125 7.1875 1.1328125 C7.3125 4.1328125 7.3125 4.1328125 7.1875 7.1328125 C6.1875 8.1328125 6.1875 8.1328125 2.75 8.3203125 C-0.8125 8.1328125 -0.8125 8.1328125 -2.8125 6.1328125 C-3 3.5703125 -3 3.5703125 -2.8125 1.1328125 C-1.8125 0.1328125 -1.8125 0.1328125 0 0 Z " fill="#323131" transform="translate(133.8125,298.8671875)"/>
<path d="M0 0 C2.64 0 5.28 0 8 0 C8.38063221 2.3260857 8.71269945 4.66055264 9 7 C8 8 8 8 6.1875 8.1328125 C5.465625 8.13023437 4.74375 8.12765625 4 8.125 C3.278125 8.12757813 2.55625 8.13015625 1.8125 8.1328125 C0 8 0 8 -1 7 C-0.71269945 4.66055264 -0.38063221 2.3260857 0 0 Z " fill="#323231" transform="translate(228,287)"/>
<path d="M0 0 C3 0.125 3 0.125 4 1.125 C4.1875 4.5625 4.1875 4.5625 4 8.125 C2 10.125 2 10.125 -0.5625 10.3125 C-3 10.125 -3 10.125 -4 9.125 C-4.1328125 7.3125 -4.1328125 7.3125 -4.125 5.125 C-4.12757813 4.403125 -4.13015625 3.68125 -4.1328125 2.9375 C-3.90343964 -0.1927649 -3.18691942 0.13278831 0 0 Z " fill="#303030" transform="translate(148,248.875)"/>
<path d="M0 0 C2.375 0.6875 2.375 0.6875 3.375 1.6875 C3.6732732 4.52109542 3.73102594 6.12535378 2.1875 8.5625 C0.375 9.6875 0.375 9.6875 -2.25 9.4375 C-4.625 8.6875 -4.625 8.6875 -5.625 7.6875 C-5.875 4.75 -5.875 4.75 -5.625 1.6875 C-2.625 -0.3125 -2.625 -0.3125 0 0 Z " fill="#333332" transform="translate(183.625,224.3125)"/>
<path d="M0 0 C0.721875 0.00257813 1.44375 0.00515625 2.1875 0.0078125 C2.909375 0.00523437 3.63125 0.00265625 4.375 0 C6.1875 0.1328125 6.1875 0.1328125 7.1875 1.1328125 C7.375 3.5703125 7.375 3.5703125 7.1875 6.1328125 C5.1875 8.1328125 5.1875 8.1328125 1.625 8.3203125 C-1.8125 8.1328125 -1.8125 8.1328125 -2.8125 7.1328125 C-2.9375 4.1328125 -2.9375 4.1328125 -2.8125 1.1328125 C-1.8125 0.1328125 -1.8125 0.1328125 0 0 Z " fill="#DBDCDD" transform="translate(228.8125,212.8671875)"/>
<path d="M0 0 C4.55555556 0.55555556 4.55555556 0.55555556 6 2 C6.1875 4.9375 6.1875 4.9375 6 8 C4 10 4 10 1.5 10.3125 C0.2625 10.1578125 0.2625 10.1578125 -1 10 C-3 7 -3 7 -2.75 4.4375 C-2 2 -2 2 0 0 Z " fill="#303030" transform="translate(270,161)"/>
<path d="M0 0 C1.010625 0.0825 2.02125 0.165 3.0625 0.25 C5.21059171 3.47213757 5.35636153 4.52775401 5.0625 8.25 C4.0625 9.25 4.0625 9.25 0.5625 9.375 C-2.9375 9.25 -2.9375 9.25 -3.9375 8.25 C-4.0625 4.75 -4.0625 4.75 -3.9375 1.25 C-2.9375 0.25 -2.9375 0.25 0 0 Z " fill="#343434" transform="translate(235.9375,58.75)"/>
<path d="M0 0 C1.8125 0.75 1.8125 0.75 2.8125 1.75 C3.0625 4.6875 3.0625 4.6875 2.8125 7.75 C-0.1875 9.75 -0.1875 9.75 -2.8125 9.4375 C-5.1875 8.75 -5.1875 8.75 -6.1875 7.75 C-6.5 5.375 -6.5 5.375 -6.1875 2.75 C-4.09135911 0.50413476 -3.10372658 -0.35471161 0 0 Z " fill="#302F2F" transform="translate(247.1875,154.25)"/>
<path d="M0 0 C3 0.125 3 0.125 4 1.125 C4.1875 4.5625 4.1875 4.5625 4 8.125 C3.34 8.785 2.68 9.445 2 10.125 C-2.55555556 9.56944444 -2.55555556 9.56944444 -4 8.125 C-4.125 4.625 -4.125 4.625 -4 1.125 C-3 0.125 -3 0.125 0 0 Z " fill="#313131" transform="translate(367,259.875)"/>
<path d="M0 0 C3 0.125 3 0.125 4 1.125 C4.1875 4.5625 4.1875 4.5625 4 8.125 C3.34 8.785 2.68 9.445 2 10.125 C-2.55555556 9.56944444 -2.55555556 9.56944444 -4 8.125 C-4.125 4.625 -4.125 4.625 -4 1.125 C-3 0.125 -3 0.125 0 0 Z " fill="#323131" transform="translate(231,129.875)"/>
<path d="M0 0 C1.99954746 -0.04254356 4.00041636 -0.04080783 6 0 C7 1 7 1 7.125 4.4375 C7 8 7 8 6 10 C0.125 9.125 0.125 9.125 -1 8 C-1.23529412 2.47058824 -1.23529412 2.47058824 0 0 Z " fill="#353534" transform="translate(423,204)"/>
<path d="M0 0 C2.9375 0.1875 2.9375 0.1875 3.9375 1.1875 C4.125 4.125 4.125 4.125 3.9375 7.1875 C1.9375 9.1875 1.9375 9.1875 -0.5625 9.4375 C-3.0625 9.1875 -3.0625 9.1875 -5.0625 7.1875 C-5.3125 4.6875 -5.3125 4.6875 -5.0625 2.1875 C-3.0625 0.1875 -3.0625 0.1875 0 0 Z " fill="#383838" transform="translate(338.0625,77.8125)"/>
<path d="M0 0 C2.64 0 5.28 0 8 0 C8.625 2.875 8.625 2.875 9 6 C7 8 7 8 4 8.3125 C3.01 8.209375 2.02 8.10625 1 8 C-1 5 -1 5 -0.625 2.3125 C-0.41875 1.549375 -0.2125 0.78625 0 0 Z " fill="#343533" transform="translate(411,271)"/>
<path d="M0 0 C3.0625 0.1875 3.0625 0.1875 5.0625 2.1875 C5.3125 4.6875 5.3125 4.6875 5.0625 7.1875 C4.4025 7.8475 3.7425 8.5075 3.0625 9.1875 C-2.50568182 8.61931818 -2.50568182 8.61931818 -3.9375 7.1875 C-4.0625 4.1875 -4.0625 4.1875 -3.9375 1.1875 C-2.9375 0.1875 -2.9375 0.1875 0 0 Z " fill="#D6D7D6" transform="translate(373.9375,219.8125)"/>
<path d="M0 0 C3 0.25 3 0.25 5 2.25 C4.44444444 6.80555556 4.44444444 6.80555556 3 8.25 C-0.5 8.375 -0.5 8.375 -4 8.25 C-5 7.25 -5 7.25 -5.1875 4.8125 C-4.90287463 0.92261994 -3.80737989 0.31728166 0 0 Z " fill="#DADBD9" transform="translate(276,31.75)"/>
<path d="M0 0 C2 0.6875 2 0.6875 4 2.6875 C4.1875 5.75 4.1875 5.75 4 8.6875 C3 9.6875 3 9.6875 -0.0625 9.75 C-1.031875 9.729375 -2.00125 9.70875 -3 9.6875 C-4.4783226 6.73085481 -4.06032783 3.94520263 -4 0.6875 C-2 -0.3125 -2 -0.3125 0 0 Z " fill="#D0D0CF" transform="translate(381,302.3125)"/>
<path d="M0 0 C3 0.125 3 0.125 4 1.125 C4.125 4.625 4.125 4.625 4 8.125 C3 9.125 3 9.125 0 9.25 C-3 9.125 -3 9.125 -4 8.125 C-4.125 4.625 -4.125 4.625 -4 1.125 C-3 0.125 -3 0.125 0 0 Z " fill="#292A29" transform="translate(386,316.875)"/>
<path d="M0 0 C0 0.33 0 0.66 0 1 C-1.794375 1.2784375 -1.794375 1.2784375 -3.625 1.5625 C-8.71538479 2.82607069 -11.19801012 5.70484446 -14 10 C-15.37050596 12.74547874 -15.37050596 12.74547874 -16 15 C-16.99 15 -17.98 15 -19 15 C-19 11.07488565 -18.88776626 8.99312753 -16.22265625 6.01171875 C-10.40185839 0.92773074 -7.645258 -0.12331061 0 0 Z " fill="#BFC0BF" transform="translate(259,345)"/>
<path d="M0 0 C2.5625 0.1875 2.5625 0.1875 4.5625 2.1875 C4.75 5.25 4.75 5.25 4.5625 8.1875 C3.5625 9.1875 3.5625 9.1875 0.5625 9.3125 C-2.4375 9.1875 -2.4375 9.1875 -3.4375 8.1875 C-3.5625 4.6875 -3.5625 4.6875 -3.4375 1.1875 C-2.4375 0.1875 -2.4375 0.1875 0 0 Z " fill="#DCDEDE" transform="translate(261.4375,195.8125)"/>
<path d="M0 0 C3 0.125 3 0.125 4 1.125 C4.1875 4.0625 4.1875 4.0625 4 7.125 C2 9.125 2 9.125 -0.5625 9.3125 C-3 9.125 -3 9.125 -4 8.125 C-4.125 4.625 -4.125 4.625 -4 1.125 C-3 0.125 -3 0.125 0 0 Z " fill="#383737" transform="translate(347,124.875)"/>
<path d="M0 0 C3.0625 0.1875 3.0625 0.1875 5.0625 2.1875 C4.50694444 6.74305556 4.50694444 6.74305556 3.0625 8.1875 C0.0625 8.3125 0.0625 8.3125 -2.9375 8.1875 C-3.9375 7.1875 -3.9375 7.1875 -4.0625 4.1875 C-3.89838889 0.24883333 -3.89838889 0.24883333 0 0 Z " fill="#363635" transform="translate(385.9375,295.8125)"/>
<path d="M0 0 C2.33944736 0.28730055 4.6739143 0.61936779 7 1 C7.125 6.75 7.125 6.75 6 9 C3.625 9.125 3.625 9.125 1 9 C-1 7 -1 7 -1.1875 3.9375 C-1 1 -1 1 0 0 Z " fill="#D8D9D9" transform="translate(215,75)"/>
<path d="M0 0 C2.4375 0.1875 2.4375 0.1875 3.4375 1.1875 C3.625 4.125 3.625 4.125 3.4375 7.1875 C1.4375 9.1875 1.4375 9.1875 -1.125 9.375 C-3.5625 9.1875 -3.5625 9.1875 -4.5625 8.1875 C-4.75 5.25 -4.75 5.25 -4.5625 2.1875 C-2.5625 0.1875 -2.5625 0.1875 0 0 Z " fill="#363635" transform="translate(210.5625,46.8125)"/>
<path d="M0 0 C-0.33 0.99 -0.66 1.98 -1 3 C-3.50390625 3.94921875 -3.50390625 3.94921875 -6.5625 4.6875 C-7.57441406 4.93886719 -8.58632813 5.19023437 -9.62890625 5.44921875 C-10.41136719 5.63097656 -11.19382812 5.81273437 -12 6 C-12 5.34 -12 4.68 -12 4 C-19.92 4.495 -19.92 4.495 -28 5 C-25.20230441 2.20230441 -23.21820137 2.66602344 -19.3125 2.5 C-12.80039882 2.13377754 -6.40768087 -0.38834429 0 0 Z " fill="#BAB8B7" transform="translate(391,349)"/>
<path d="M0 0 C1.76171875 0.1640625 1.76171875 0.1640625 4 1 C5.95703125 3.3984375 5.95703125 3.3984375 7.8125 6.375 C8.43769531 7.35210937 9.06289063 8.32921875 9.70703125 9.3359375 C11 12 11 12 10 15 C9.34 15 8.68 15 8 15 C6.30859375 12.48046875 6.30859375 12.48046875 4.4375 9.1875 C3.50744141 7.56908203 3.50744141 7.56908203 2.55859375 5.91796875 C1 3 1 3 0 0 Z " fill="#D3B565" transform="translate(367,369)"/>
<path d="M0 0 C0.66 1.32 1.32 2.64 2 4 C-1.63 4 -5.26 4 -9 4 C-9 4.66 -9 5.32 -9 6 C-11.31 6 -13.62 6 -16 6 C-16 5.67 -16 5.34 -16 5 C-14.02 5 -12.04 5 -10 5 C-10 4.01 -10 3.02 -10 2 C-6.7 2 -3.4 2 0 2 C0 1.34 0 0.68 0 0 Z " fill="#989999" transform="translate(312,363)"/>
<path d="M0 0 C0.66 0 1.32 0 2 0 C0.34908222 4.29238623 -2.73754566 6.8793915 -6 10 C-6.66 9.67 -7.32 9.34 -8 9 C-6.85459775 7.68712379 -5.70866567 6.37470979 -4.5625 5.0625 C-3.92441406 4.33160156 -3.28632813 3.60070312 -2.62890625 2.84765625 C-1.77458541 1.87860647 -0.91348825 0.91348825 0 0 Z " fill="#D6D5D5" transform="translate(235,409)"/>
<path d="M0 0 C0.33 0.66 0.66 1.32 1 2 C0.06421005 4.35981813 -0.93347808 6.69631264 -2 9 C-2.99 9 -3.98 9 -5 9 C-5.3125 6.75 -5.3125 6.75 -5 4 C-2.5 1.6875 -2.5 1.6875 0 0 Z " fill="#D8D9D8" transform="translate(245,351)"/>
<path d="M0 0 C0.66 0.33 1.32 0.66 2 1 C-1.3 4.3 -4.6 7.6 -8 11 C-8.33 10.34 -8.66 9.68 -9 9 C-6.21000549 5.51250686 -3.74764169 2.49842779 0 0 Z " fill="#515352" transform="translate(85,313)"/>
<path d="M0 0 C1.34384766 -0.03867188 1.34384766 -0.03867188 2.71484375 -0.078125 C3.48957031 0.03015625 4.26429688 0.1384375 5.0625 0.25 C5.7225 1.24 6.3825 2.23 7.0625 3.25 C6.36382812 3.15460938 5.66515625 3.05921875 4.9453125 2.9609375 C4.03523438 2.85007812 3.12515625 2.73921875 2.1875 2.625 C1.28257812 2.50898437 0.37765625 2.39296875 -0.5546875 2.2734375 C-1.34101563 2.26570313 -2.12734375 2.25796875 -2.9375 2.25 C-4.88966435 4.20216435 -5.78576645 5.78199953 -6.9375 8.25 C-5.90042907 0.10158558 -5.90042907 0.10158558 0 0 Z " fill="#CECFCE" transform="translate(361.9375,96.75)"/>
<path d="M0 0 C1.8125 0.125 1.8125 0.125 4 1 C5.75 4.0625 5.75 4.0625 7 7 C6.01 7.33 5.02 7.66 4 8 C0 2.25 0 2.25 0 0 Z " fill="#CDAD62" transform="translate(367,369)"/>
<path d="M0 0 C1.98 0 3.96 0 6 0 C6 0.66 6 1.32 6 2 C4.1875 3.6875 4.1875 3.6875 2 5 C1.01 4.67 0.02 4.34 -1 4 C-0.67 2.68 -0.34 1.36 0 0 Z " fill="#D3D1CD" transform="translate(145,362)"/>
<path d="M0 0 C0 0.66 0 1.32 0 2 C-0.66 2 -1.32 2 -2 2 C-2 3.65 -2 5.3 -2 7 C-2.99 7 -3.98 7 -5 7 C-4.67 6.01 -4.34 5.02 -4 4 C-4.66 3.67 -5.32 3.34 -6 3 C-6 2.34 -6 1.68 -6 1 C-4 0 -4 0 0 0 Z " fill="#BDBCBC" transform="translate(204,367)"/>
<path d="M0 0 C0.66 0.33 1.32 0.66 2 1 C1.195625 1.680625 0.39125 2.36125 -0.4375 3.0625 C-3.42288711 6.48477302 -3.73781251 8.5428126 -4 13 C-4.33 13 -4.66 13 -5 13 C-5.29359745 9.9465865 -5.4451258 7.04256578 -5 4 C-2.5 1.4375 -2.5 1.4375 0 0 Z " fill="#7E7E7E" transform="translate(323,439)"/>
<path d="M0 0 C0.66 0.33 1.32 0.66 2 1 C-0.64 3.64 -3.28 6.28 -6 9 C-6.33 8.34 -6.66 7.68 -7 7 C-4.78071806 4.09197539 -3.07030857 2.04687238 0 0 Z " fill="#B8B9B7" transform="translate(148,338)"/>
<path d="M0 0 C-1.49097658 3.7952131 -3.75700849 5.61042731 -7 8 C-6.44414399 4.1090079 -4.34122117 0 0 0 Z " fill="#C6C7C6" transform="translate(411,335)"/>
<path d="M0 0 C0.66 0.33 1.32 0.66 2 1 C1.484375 1.391875 0.96875 1.78375 0.4375 2.1875 C-0.036875 2.785625 -0.51125 3.38375 -1 4 C-0.76956136 6.65466049 -0.76956136 6.65466049 0 9 C-2.475 8.01 -2.475 8.01 -5 7 C-3.70700306 4.11562221 -2.34058637 2.12780579 0 0 Z " fill="#BCBCBA" transform="translate(89,321)"/>
<path d="M0 0 C3.45925163 1.2491742 6.14693203 2.67527795 9 5 C8.34 5 7.68 5 7 5 C6.67 5.66 6.34 6.32 6 7 C4.02 4.69 2.04 2.38 0 0 Z " fill="#888986" transform="translate(292,317)"/>
<path d="M0 0 C0.66 0.33 1.32 0.66 2 1 C-0.31 3.31 -2.62 5.62 -5 8 C-5.33 7.01 -5.66 6.02 -6 5 C-4.02 3.35 -2.04 1.7 0 0 Z " fill="#3F3E3E" transform="translate(393,247)"/>
<path d="M0 0 C0.33 0.99 0.66 1.98 1 3 C-0.40445835 5.2636564 -2.1967913 7.0208685 -4 9 C-4.66 8.67 -5.32 8.34 -6 8 C-4.02 5.36 -2.04 2.72 0 0 Z " fill="#4D4E4C" transform="translate(92,365)"/>
<path d="M0 0 C0.99 0.33 1.98 0.66 3 1 C1.02 2.98 -0.96 4.96 -3 7 C-3.66 6.67 -4.32 6.34 -5 6 C-3.35 4.02 -1.7 2.04 0 0 Z " fill="#C6C7C7" transform="translate(29,365)"/>
<path d="M0 0 C-1.33333333 2.66666667 -2.66666667 5.33333333 -4 8 C-4.66 8 -5.32 8 -6 8 C-5.62403791 5.21788056 -5.32681541 3.4120716 -3.5625 1.1875 C-2 0 -2 0 0 0 Z " fill="#BABCBA" transform="translate(180,349)"/>
<path d="M0 0 C0.33 0 0.66 0 1 0 C1.25 5.625 1.25 5.625 -1 9 C-2.65 8.67 -4.3 8.34 -6 8 C-5.38125 7.79375 -4.7625 7.5875 -4.125 7.375 C-1.15346355 5.45224112 -0.86975341 3.33405473 0 0 Z " fill="#8A8A8A" transform="translate(276,164)"/>
<path d="M0 0 C0.66 0 1.32 0 2 0 C0.50902342 3.7952131 -1.75700849 5.61042731 -5 8 C-3.63055898 5.05043472 -2.12169591 2.47531189 0 0 Z " fill="#D6D8D7" transform="translate(223,242)"/>
<path d="M0 0 C2.31 0 4.62 0 7 0 C4.08596738 1.94268841 1.14191424 3.46395304 -2 5 C-1.34 3.35 -0.68 1.7 0 0 Z " fill="#525353" transform="translate(333,103)"/>
</svg>
